<?xml version="1.0" encoding="UTF-8" standalone="no"?>
<!DOCTYPE svg PUBLIC "-//W3C//DTD SVG 1.1//EN"
 "http://www.w3.org/Graphics/SVG/1.1/DTD/svg11.dtd">
<!-- Generated by graphviz version 2.43.0 (0)
 -->
<!-- Title: /home/runner/work/2D&#45;Truss&#45;Analysis/2D&#45;Truss&#45;Analysis/src/gui/panels/analysis_options_dialog.cpp Pages: 1 -->
<svg width="1617pt" height="599pt"
 viewBox="0.00 0.00 1616.50 599.00" xmlns="http://www.w3.org/2000/svg" xmlns:xlink="http://www.w3.org/1999/xlink">
<g id="graph0" class="graph" transform="scale(1 1) rotate(0) translate(4 595)">
<title>/home/runner/work/2D&#45;Truss&#45;Analysis/2D&#45;Truss&#45;Analysis/src/gui/panels/analysis_options_dialog.cpp</title>
<!-- Node1 -->
<g id="Node000001" class="node">
<title>Node1</title>
<g id="a_Node000001"><a xlink:title="AnalysisOptionsDialog implementation.">
<polygon fill="#999999" stroke="#666666" points="1220.5,-591 1063.5,-591 1063.5,-539 1220.5,-539 1220.5,-591"/>
<text text-anchor="start" x="1071.5" y="-579" font-family="Helvetica,sans-Serif" font-size="10.00">/home/runner/work/2D</text>
<text text-anchor="start" x="1071.5" y="-568" font-family="Helvetica,sans-Serif" font-size="10.00">&#45;Truss&#45;Analysis/2D&#45;Truss</text>
<text text-anchor="start" x="1071.5" y="-557" font-family="Helvetica,sans-Serif" font-size="10.00">&#45;Analysis/src/gui/panels</text>
<text text-anchor="middle" x="1142" y="-546" font-family="Helvetica,sans-Serif" font-size="10.00">/analysis_options_dialog.cpp</text>
</a>
</g>
</g>
<!-- Node2 -->
<g id="Node000002" class="node">
<title>Node2</title>
<g id="a_Node000002"><a xlink:href="analysis__options__dialog_8hpp.html" target="_top" xlink:title="Modal dialog for configuring solver options before analysis.">
<polygon fill="white" stroke="#666666" points="709,-503 595,-503 595,-473 709,-473 709,-503"/>
<text text-anchor="start" x="603" y="-491" font-family="Helvetica,sans-Serif" font-size="10.00">gui/panels/analysis</text>
<text text-anchor="middle" x="652" y="-480" font-family="Helvetica,sans-Serif" font-size="10.00">_options_dialog.hpp</text>
</a>
</g>
</g>
<!-- Node1&#45;&gt;Node2 -->
<g id="edge1_Node000001_Node000002" class="edge">
<title>Node1&#45;&gt;Node2</title>
<g id="a_edge1_Node000001_Node000002"><a xlink:title=" ">
<path fill="none" stroke="#63b8ff" d="M1063.41,-554.17C980.46,-543.45 845.71,-525.07 719.21,-502.96"/>
<polygon fill="#63b8ff" stroke="#63b8ff" points="719.79,-499.51 709.34,-501.23 718.58,-506.41 719.79,-499.51"/>
</a>
</g>
</g>
<!-- Node25 -->
<g id="Node000025" class="node">
<title>Node25</title>
<g id="a_Node000025"><a xlink:title=" ">
<polygon fill="#e0e0e0" stroke="#999999" points="800.5,-497.5 727.5,-497.5 727.5,-478.5 800.5,-478.5 800.5,-497.5"/>
<text text-anchor="middle" x="764" y="-485.5" font-family="Helvetica,sans-Serif" font-size="10.00">QCheckBox</text>
</a>
</g>
</g>
<!-- Node1&#45;&gt;Node25 -->
<g id="edge63_Node000001_Node000025" class="edge">
<title>Node1&#45;&gt;Node25</title>
<g id="a_edge63_Node000001_Node000025"><a xlink:title=" ">
<path fill="none" stroke="#63b8ff" d="M1063.32,-552.13C995.71,-541.32 895.84,-523.88 810,-503 806.65,-502.19 803.19,-501.27 799.74,-500.31"/>
<polygon fill="#63b8ff" stroke="#63b8ff" points="800.71,-496.95 790.13,-497.52 798.75,-503.67 800.71,-496.95"/>
</a>
</g>
</g>
<!-- Node26 -->
<g id="Node000026" class="node">
<title>Node26</title>
<g id="a_Node000026"><a xlink:title=" ">
<polygon fill="#e0e0e0" stroke="#999999" points="895.5,-497.5 818.5,-497.5 818.5,-478.5 895.5,-478.5 895.5,-497.5"/>
<text text-anchor="middle" x="857" y="-485.5" font-family="Helvetica,sans-Serif" font-size="10.00">QComboBox</text>
</a>
</g>
</g>
<!-- Node1&#45;&gt;Node26 -->
<g id="edge64_Node000001_Node000026" class="edge">
<title>Node1&#45;&gt;Node26</title>
<g id="a_edge64_Node000001_Node000026"><a xlink:title=" ">
<path fill="none" stroke="#63b8ff" d="M1063.37,-544.43C1017.16,-532.76 957.65,-517.45 905,-503 901.86,-502.14 898.61,-501.23 895.35,-500.3"/>
<polygon fill="#63b8ff" stroke="#63b8ff" points="896.22,-496.91 885.64,-497.52 894.28,-503.64 896.22,-496.91"/>
</a>
</g>
</g>
<!-- Node27 -->
<g id="Node000027" class="node">
<title>Node27</title>
<g id="a_Node000027"><a xlink:title=" ">
<polygon fill="#e0e0e0" stroke="#999999" points="1020.5,-497.5 913.5,-497.5 913.5,-478.5 1020.5,-478.5 1020.5,-497.5"/>
<text text-anchor="middle" x="967" y="-485.5" font-family="Helvetica,sans-Serif" font-size="10.00">QDialogButtonBox</text>
</a>
</g>
</g>
<!-- Node1&#45;&gt;Node27 -->
<g id="edge65_Node000001_Node000027" class="edge">
<title>Node1&#45;&gt;Node27</title>
<g id="a_edge65_Node000001_Node000027"><a xlink:title=" ">
<path fill="none" stroke="#63b8ff" d="M1083.24,-538.82C1054.05,-526.31 1020.05,-511.74 996.4,-501.6"/>
<polygon fill="#63b8ff" stroke="#63b8ff" points="997.51,-498.27 986.94,-497.54 994.75,-504.7 997.51,-498.27"/>
</a>
</g>
</g>
<!-- Node28 -->
<g id="Node000028" class="node">
<title>Node28</title>
<g id="a_Node000028"><a xlink:title=" ">
<polygon fill="#e0e0e0" stroke="#999999" points="1137,-497.5 1039,-497.5 1039,-478.5 1137,-478.5 1137,-497.5"/>
<text text-anchor="middle" x="1088" y="-485.5" font-family="Helvetica,sans-Serif" font-size="10.00">QDoubleSpinBox</text>
</a>
</g>
</g>
<!-- Node1&#45;&gt;Node28 -->
<g id="edge66_Node000001_Node000028" class="edge">
<title>Node1&#45;&gt;Node28</title>
<g id="a_edge66_Node000001_Node000028"><a xlink:title=" ">
<path fill="none" stroke="#63b8ff" d="M1123.72,-538.61C1116.02,-527.92 1107.26,-515.75 1100.35,-506.15"/>
<polygon fill="#63b8ff" stroke="#63b8ff" points="1103.06,-503.92 1094.37,-497.85 1097.38,-508.01 1103.06,-503.92"/>
</a>
</g>
</g>
<!-- Node29 -->
<g id="Node000029" class="node">
<title>Node29</title>
<g id="a_Node000029"><a xlink:title=" ">
<polygon fill="#e0e0e0" stroke="#999999" points="1237,-497.5 1155,-497.5 1155,-478.5 1237,-478.5 1237,-497.5"/>
<text text-anchor="middle" x="1196" y="-485.5" font-family="Helvetica,sans-Serif" font-size="10.00">QFormLayout</text>
</a>
</g>
</g>
<!-- Node1&#45;&gt;Node29 -->
<g id="edge67_Node000001_Node000029" class="edge">
<title>Node1&#45;&gt;Node29</title>
<g id="a_edge67_Node000001_Node000029"><a xlink:title=" ">
<path fill="none" stroke="#63b8ff" d="M1160.28,-538.61C1167.98,-527.92 1176.74,-515.75 1183.65,-506.15"/>
<polygon fill="#63b8ff" stroke="#63b8ff" points="1186.62,-508.01 1189.63,-497.85 1180.94,-503.92 1186.62,-508.01"/>
</a>
</g>
</g>
<!-- Node30 -->
<g id="Node000030" class="node">
<title>Node30</title>
<g id="a_Node000030"><a xlink:title=" ">
<polygon fill="#e0e0e0" stroke="#999999" points="1327,-497.5 1255,-497.5 1255,-478.5 1327,-478.5 1327,-497.5"/>
<text text-anchor="middle" x="1291" y="-485.5" font-family="Helvetica,sans-Serif" font-size="10.00">QGroupBox</text>
</a>
</g>
</g>
<!-- Node1&#45;&gt;Node30 -->
<g id="edge68_Node000001_Node000030" class="edge">
<title>Node1&#45;&gt;Node30</title>
<g id="a_edge68_Node000001_Node000030"><a xlink:title=" ">
<path fill="none" stroke="#63b8ff" d="M1192.03,-538.82C1216.44,-526.53 1244.8,-512.26 1264.88,-502.15"/>
<polygon fill="#63b8ff" stroke="#63b8ff" points="1266.67,-505.17 1274.03,-497.54 1263.52,-498.91 1266.67,-505.17"/>
</a>
</g>
</g>
<!-- Node31 -->
<g id="Node000031" class="node">
<title>Node31</title>
<g id="a_Node000031"><a xlink:title=" ">
<polygon fill="#e0e0e0" stroke="#999999" points="1425,-497.5 1345,-497.5 1345,-478.5 1425,-478.5 1425,-497.5"/>
<text text-anchor="middle" x="1385" y="-485.5" font-family="Helvetica,sans-Serif" font-size="10.00">QPushButton</text>
</a>
</g>
</g>
<!-- Node1&#45;&gt;Node31 -->
<g id="edge69_Node000001_Node000031" class="edge">
<title>Node1&#45;&gt;Node31</title>
<g id="a_edge69_Node000001_Node000031"><a xlink:title=" ">
<path fill="none" stroke="#63b8ff" d="M1220.56,-539.75C1263.03,-526.64 1313.54,-511.05 1347.27,-500.64"/>
<polygon fill="#63b8ff" stroke="#63b8ff" points="1348.65,-503.88 1357.17,-497.59 1346.58,-497.19 1348.65,-503.88"/>
</a>
</g>
</g>
<!-- Node32 -->
<g id="Node000032" class="node">
<title>Node32</title>
<g id="a_Node000032"><a xlink:title=" ">
<polygon fill="#e0e0e0" stroke="#999999" points="1507,-497.5 1443,-497.5 1443,-478.5 1507,-478.5 1507,-497.5"/>
<text text-anchor="middle" x="1475" y="-485.5" font-family="Helvetica,sans-Serif" font-size="10.00">QSpinBox</text>
</a>
</g>
</g>
<!-- Node1&#45;&gt;Node32 -->
<g id="edge70_Node000001_Node000032" class="edge">
<title>Node1&#45;&gt;Node32</title>
<g id="a_edge70_Node000001_Node000032"><a xlink:title=" ">
<path fill="none" stroke="#63b8ff" d="M1220.7,-550.28C1279.83,-539.31 1362.58,-522.57 1434,-503 1436.48,-502.32 1439.02,-501.58 1441.57,-500.79"/>
<polygon fill="#63b8ff" stroke="#63b8ff" points="1442.87,-504.05 1451.31,-497.64 1440.71,-497.39 1442.87,-504.05"/>
</a>
</g>
</g>
<!-- Node33 -->
<g id="Node000033" class="node">
<title>Node33</title>
<g id="a_Node000033"><a xlink:title=" ">
<polygon fill="#e0e0e0" stroke="#999999" points="1608.5,-497.5 1525.5,-497.5 1525.5,-478.5 1608.5,-478.5 1608.5,-497.5"/>
<text text-anchor="middle" x="1567" y="-485.5" font-family="Helvetica,sans-Serif" font-size="10.00">QVBoxLayout</text>
</a>
</g>
</g>
<!-- Node1&#45;&gt;Node33 -->
<g id="edge71_Node000001_Node000033" class="edge">
<title>Node1&#45;&gt;Node33</title>
<g id="a_edge71_Node000001_Node000033"><a xlink:title=" ">
<path fill="none" stroke="#63b8ff" d="M1220.54,-553.67C1296.53,-543.08 1414.76,-525.09 1516,-503 1519.92,-502.14 1524,-501.17 1528.05,-500.15"/>
<polygon fill="#63b8ff" stroke="#63b8ff" points="1529.22,-503.46 1538,-497.53 1527.44,-496.69 1529.22,-503.46"/>
</a>
</g>
</g>
<!-- Node3 -->
<g id="Node000003" class="node">
<title>Node3</title>
<g id="a_Node000003"><a xlink:href="analysis__orchestrator_8hpp.html" target="_top" xlink:title="Orchestrates the structural analysis workflow using decomposed components.">
<polygon fill="white" stroke="#666666" points="660.5,-437 535.5,-437 535.5,-407 660.5,-407 660.5,-437"/>
<text text-anchor="start" x="543.5" y="-425" font-family="Helvetica,sans-Serif" font-size="10.00">core/analysis/analysis</text>
<text text-anchor="middle" x="598" y="-414" font-family="Helvetica,sans-Serif" font-size="10.00">_orchestrator.hpp</text>
</a>
</g>
</g>
<!-- Node2&#45;&gt;Node3 -->
<g id="edge2_Node000002_Node000003" class="edge">
<title>Node2&#45;&gt;Node3</title>
<g id="a_edge2_Node000002_Node000003"><a xlink:title=" ">
<path fill="none" stroke="#63b8ff" d="M640.02,-472.8C633.09,-464.59 624.24,-454.1 616.45,-444.87"/>
<polygon fill="#63b8ff" stroke="#63b8ff" points="619.07,-442.55 609.95,-437.16 613.72,-447.06 619.07,-442.55"/>
</a>
</g>
</g>
<!-- Node24 -->
<g id="Node000024" class="node">
<title>Node24</title>
<g id="a_Node000024"><a xlink:title=" ">
<polygon fill="#e0e0e0" stroke="#999999" points="735,-431.5 679,-431.5 679,-412.5 735,-412.5 735,-431.5"/>
<text text-anchor="middle" x="707" y="-419.5" font-family="Helvetica,sans-Serif" font-size="10.00">QDialog</text>
</a>
</g>
</g>
<!-- Node2&#45;&gt;Node24 -->
<g id="edge62_Node000002_Node000024" class="edge">
<title>Node2&#45;&gt;Node24</title>
<g id="a_edge62_Node000002_Node000024"><a xlink:title=" ">
<path fill="none" stroke="#63b8ff" d="M664.21,-472.8C672.61,-463.01 683.81,-449.98 692.65,-439.7"/>
<polygon fill="#63b8ff" stroke="#63b8ff" points="695.54,-441.71 699.4,-431.84 690.23,-437.15 695.54,-441.71"/>
</a>
</g>
</g>
<!-- Node4 -->
<g id="Node000004" class="node">
<title>Node4</title>
<g id="a_Node000004"><a xlink:href="ianalysis__results__view_8hpp.html" target="_top" xlink:title="Read&#45;only view interface for AnalysisResults data.">
<polygon fill="white" stroke="#666666" points="187.5,-195 66.5,-195 66.5,-165 187.5,-165 187.5,-195"/>
<text text-anchor="start" x="74.5" y="-183" font-family="Helvetica,sans-Serif" font-size="10.00">../interfaces/ianalysis</text>
<text text-anchor="middle" x="127" y="-172" font-family="Helvetica,sans-Serif" font-size="10.00">_results_view.hpp</text>
</a>
</g>
</g>
<!-- Node3&#45;&gt;Node4 -->
<g id="edge3_Node000003_Node000004" class="edge">
<title>Node3&#45;&gt;Node4</title>
<g id="a_edge3_Node000003_Node000004"><a xlink:title=" ">
<path fill="none" stroke="#63b8ff" d="M535.2,-421.3C468.45,-419.37 361.24,-409.69 278,-371 204.78,-336.97 156.56,-247.42 136.95,-204.54"/>
<polygon fill="#63b8ff" stroke="#63b8ff" points="140.05,-202.89 132.79,-195.18 133.65,-205.74 140.05,-202.89"/>
</a>
</g>
</g>
<!-- Node5 -->
<g id="Node000005" class="node">
<title>Node5</title>
<g id="a_Node000005"><a xlink:href="src_2core_2model_2types_8hpp.html" target="_top" xlink:title="Core data types and mathematical utilities for truss analysis.">
<polygon fill="white" stroke="#666666" points="427.5,-129 320.5,-129 320.5,-110 427.5,-110 427.5,-129"/>
<text text-anchor="middle" x="374" y="-117" font-family="Helvetica,sans-Serif" font-size="10.00">../model/types.hpp</text>
</a>
</g>
</g>
<!-- Node3&#45;&gt;Node5 -->
<g id="edge34_Node000003_Node000005" class="edge">
<title>Node3&#45;&gt;Node5</title>
<g id="a_edge34_Node000003_Node000005"><a xlink:title=" ">
<path fill="none" stroke="#63b8ff" d="M535.34,-414.83C490,-408.47 428.29,-395.81 379,-371 333.53,-348.11 292,-347.41 292,-296.5 292,-296.5 292,-296.5 292,-239.5 292,-195.74 330.07,-156.36 354.33,-135.71"/>
<polygon fill="#63b8ff" stroke="#63b8ff" points="356.74,-138.27 362.25,-129.22 352.3,-132.85 356.74,-138.27"/>
</a>
</g>
</g>
<!-- Node11 -->
<g id="Node000011" class="node">
<title>Node11</title>
<g id="a_Node000011"><a xlink:title=" ">
<polygon fill="#e0e0e0" stroke="#999999" points="980,-74 922,-74 922,-55 980,-55 980,-74"/>
<text text-anchor="middle" x="951" y="-62" font-family="Helvetica,sans-Serif" font-size="10.00">memory</text>
</a>
</g>
</g>
<!-- Node3&#45;&gt;Node11 -->
<g id="edge60_Node000003_Node000011" class="edge">
<title>Node3&#45;&gt;Node11</title>
<g id="a_edge60_Node000003_Node000011"><a xlink:title=" ">
<path fill="none" stroke="#63b8ff" d="M660.77,-408.46C663.89,-407.94 666.98,-407.45 670,-407 785.54,-389.68 1184,-413.33 1184,-296.5 1184,-296.5 1184,-296.5 1184,-179 1184,-93.79 1056.5,-72.54 990.14,-67.25"/>
<polygon fill="#63b8ff" stroke="#63b8ff" points="990.26,-63.75 980.04,-66.53 989.76,-70.73 990.26,-63.75"/>
</a>
</g>
</g>
<!-- Node12 -->
<g id="Node000012" class="node">
<title>Node12</title>
<g id="a_Node000012"><a xlink:title=" ">
<polygon fill="#e0e0e0" stroke="#999999" points="258.5,-74 211.5,-74 211.5,-55 258.5,-55 258.5,-74"/>
<text text-anchor="middle" x="235" y="-62" font-family="Helvetica,sans-Serif" font-size="10.00">vector</text>
</a>
</g>
</g>
<!-- Node3&#45;&gt;Node12 -->
<g id="edge61_Node000003_Node000012" class="edge">
<title>Node3&#45;&gt;Node12</title>
<g id="a_edge61_Node000003_Node000012"><a xlink:title=" ">
<path fill="none" stroke="#63b8ff" d="M535.42,-421.08C382.07,-419.59 0,-405 0,-296.5 0,-296.5 0,-296.5 0,-179 0,-90.8 135.88,-71.11 200.99,-66.74"/>
<polygon fill="#63b8ff" stroke="#63b8ff" points="201.4,-70.22 211.17,-66.14 200.99,-63.23 201.4,-70.22"/>
</a>
</g>
</g>
<!-- Node13 -->
<g id="Node000013" class="node">
<title>Node13</title>
<g id="a_Node000013"><a xlink:href="src_2core_2model_2truss_8hpp.html" target="_top" xlink:title="Truss class representing the complete structural system.">
<polygon fill="white" stroke="#666666" points="707,-305 603,-305 603,-286 707,-286 707,-305"/>
<text text-anchor="middle" x="655" y="-293" font-family="Helvetica,sans-Serif" font-size="10.00">../model/truss.hpp</text>
</a>
</g>
</g>
<!-- Node3&#45;&gt;Node13 -->
<g id="edge13_Node000003_Node000013" class="edge">
<title>Node3&#45;&gt;Node13</title>
<g id="a_edge13_Node000003_Node000013"><a xlink:title=" ">
<path fill="none" stroke="#63b8ff" d="M599.61,-406.74C601.91,-390.2 607.12,-362.45 618,-341 623.26,-330.62 631.33,-320.53 638.59,-312.59"/>
<polygon fill="#63b8ff" stroke="#63b8ff" points="641.32,-314.8 645.72,-305.17 636.27,-309.96 641.32,-314.8"/>
</a>
</g>
</g>
<!-- Node19 -->
<g id="Node000019" class="node">
<title>Node19</title>
<g id="a_Node000019"><a xlink:href="truss__validator_8hpp.html" target="_top" xlink:title="Validation service for truss structural systems.">
<polygon fill="white" stroke="#666666" points="727.5,-371 626.5,-371 626.5,-341 727.5,-341 727.5,-371"/>
<text text-anchor="start" x="634.5" y="-359" font-family="Helvetica,sans-Serif" font-size="10.00">../validation/truss</text>
<text text-anchor="middle" x="677" y="-348" font-family="Helvetica,sans-Serif" font-size="10.00">_validator.hpp</text>
</a>
</g>
</g>
<!-- Node3&#45;&gt;Node19 -->
<g id="edge35_Node000003_Node000019" class="edge">
<title>Node3&#45;&gt;Node19</title>
<g id="a_edge35_Node000003_Node000019"><a xlink:title=" ">
<path fill="none" stroke="#63b8ff" d="M615.53,-406.8C626.17,-398.18 639.92,-387.04 651.72,-377.48"/>
<polygon fill="#63b8ff" stroke="#63b8ff" points="653.95,-380.18 659.52,-371.16 649.54,-374.74 653.95,-380.18"/>
</a>
</g>
</g>
<!-- Node21 -->
<g id="Node000021" class="node">
<title>Node21</title>
<g id="a_Node000021"><a xlink:href="boundary__condition__handler_8hpp.html" target="_top" xlink:title="Handles boundary condition application for structural analysis.">
<polygon fill="white" stroke="#666666" points="500.5,-371 387.5,-371 387.5,-341 500.5,-341 500.5,-371"/>
<text text-anchor="start" x="395.5" y="-359" font-family="Helvetica,sans-Serif" font-size="10.00">boundary_condition</text>
<text text-anchor="middle" x="444" y="-348" font-family="Helvetica,sans-Serif" font-size="10.00">_handler.hpp</text>
</a>
</g>
</g>
<!-- Node3&#45;&gt;Node21 -->
<g id="edge46_Node000003_Node000021" class="edge">
<title>Node3&#45;&gt;Node21</title>
<g id="a_edge46_Node000003_Node000021"><a xlink:title=" ">
<path fill="none" stroke="#63b8ff" d="M564.2,-406.95C541.54,-397.53 511.48,-385.04 487.1,-374.91"/>
<polygon fill="#63b8ff" stroke="#63b8ff" points="488.29,-371.62 477.72,-371.01 485.61,-378.08 488.29,-371.62"/>
</a>
</g>
</g>
<!-- Node22 -->
<g id="Node000022" class="node">
<title>Node22</title>
<g id="a_Node000022"><a xlink:href="ilinear__solver_8hpp.html" target="_top" xlink:title="Interface for linear system solvers.">
<polygon fill="white" stroke="#666666" points="903.5,-129 800.5,-129 800.5,-110 903.5,-110 903.5,-129"/>
<text text-anchor="middle" x="852" y="-117" font-family="Helvetica,sans-Serif" font-size="10.00">ilinear_solver.hpp</text>
</a>
</g>
</g>
<!-- Node3&#45;&gt;Node22 -->
<g id="edge51_Node000003_Node000022" class="edge">
<title>Node3&#45;&gt;Node22</title>
<g id="a_edge51_Node000003_Node000022"><a xlink:title=" ">
<path fill="none" stroke="#63b8ff" d="M660.81,-408.68C663.91,-408.1 666.99,-407.54 670,-407 760.77,-390.72 1070,-388.72 1070,-296.5 1070,-296.5 1070,-296.5 1070,-239.5 1070,-167.87 978.21,-139.1 913.76,-127.72"/>
<polygon fill="#63b8ff" stroke="#63b8ff" points="914.1,-124.23 903.66,-126.04 912.95,-131.13 914.1,-124.23"/>
</a>
</g>
</g>
<!-- Node23 -->
<g id="Node000023" class="node">
<title>Node23</title>
<g id="a_Node000023"><a xlink:href="stiffness__assembler_8hpp.html" target="_top" xlink:title="Assembles global stiffness matrices for truss structures.">
<polygon fill="white" stroke="#666666" points="880,-365.5 746,-365.5 746,-346.5 880,-346.5 880,-365.5"/>
<text text-anchor="middle" x="813" y="-353.5" font-family="Helvetica,sans-Serif" font-size="10.00">stiffness_assembler.hpp</text>
</a>
</g>
</g>
<!-- Node3&#45;&gt;Node23 -->
<g id="edge54_Node000003_Node000023" class="edge">
<title>Node3&#45;&gt;Node23</title>
<g id="a_edge54_Node000003_Node000023"><a xlink:title=" ">
<path fill="none" stroke="#63b8ff" d="M645.18,-406.95C684.05,-395.38 738.47,-379.18 774.68,-368.41"/>
<polygon fill="#63b8ff" stroke="#63b8ff" points="775.8,-371.72 784.39,-365.52 773.8,-365.02 775.8,-371.72"/>
</a>
</g>
</g>
<!-- Node4&#45;&gt;Node5 -->
<g id="edge4_Node000004_Node000005" class="edge">
<title>Node4&#45;&gt;Node5</title>
<g id="a_edge4_Node000004_Node000005"><a xlink:title=" ">
<path fill="none" stroke="#63b8ff" d="M186.16,-164.99C229.71,-154.67 288.07,-140.85 328.12,-131.37"/>
<polygon fill="#63b8ff" stroke="#63b8ff" points="328.96,-134.76 337.88,-129.05 327.35,-127.95 328.96,-134.76"/>
</a>
</g>
</g>
<!-- Node4&#45;&gt;Node12 -->
<g id="edge12_Node000004_Node000012" class="edge">
<title>Node4&#45;&gt;Node12</title>
<g id="a_edge12_Node000004_Node000012"><a xlink:title=" ">
<path fill="none" stroke="#63b8ff" d="M140.68,-164.63C160.9,-143.37 198.65,-103.71 219.74,-81.54"/>
<polygon fill="#63b8ff" stroke="#63b8ff" points="222.34,-83.89 226.69,-74.23 217.26,-79.06 222.34,-83.89"/>
</a>
</g>
</g>
<!-- Node6 -->
<g id="Node000006" class="node">
<title>Node6</title>
<g id="a_Node000006"><a xlink:href="math__utils_8hpp.html" target="_top" xlink:title="Pure mathematical utility functions with no project dependencies.">
<polygon fill="white" stroke="#666666" points="510.5,-74 381.5,-74 381.5,-55 510.5,-55 510.5,-74"/>
<text text-anchor="middle" x="446" y="-62" font-family="Helvetica,sans-Serif" font-size="10.00">utilities/math_utils.hpp</text>
</a>
</g>
</g>
<!-- Node5&#45;&gt;Node6 -->
<g id="edge5_Node000005_Node000006" class="edge">
<title>Node5&#45;&gt;Node6</title>
<g id="a_edge5_Node000005_Node000006"><a xlink:title=" ">
<path fill="none" stroke="#63b8ff" d="M385.57,-109.98C396.42,-102 412.88,-89.88 425.88,-80.31"/>
<polygon fill="#63b8ff" stroke="#63b8ff" points="428.24,-82.92 434.22,-74.17 424.09,-77.28 428.24,-82.92"/>
</a>
</g>
</g>
<!-- Node9 -->
<g id="Node000009" class="node">
<title>Node9</title>
<g id="a_Node000009"><a xlink:title=" ">
<polygon fill="#e0e0e0" stroke="#999999" points="708.5,-74 631.5,-74 631.5,-55 708.5,-55 708.5,-74"/>
<text text-anchor="middle" x="670" y="-62" font-family="Helvetica,sans-Serif" font-size="10.00">Eigen/Dense</text>
</a>
</g>
</g>
<!-- Node5&#45;&gt;Node9 -->
<g id="edge8_Node000005_Node000009" class="edge">
<title>Node5&#45;&gt;Node9</title>
<g id="a_edge8_Node000005_Node000009"><a xlink:title=" ">
<path fill="none" stroke="#63b8ff" d="M421.56,-109.98C476.33,-100.18 565.84,-84.15 621.15,-74.25"/>
<polygon fill="#63b8ff" stroke="#63b8ff" points="621.84,-77.68 631.07,-72.47 620.61,-70.79 621.84,-77.68"/>
</a>
</g>
</g>
<!-- Node10 -->
<g id="Node000010" class="node">
<title>Node10</title>
<g id="a_Node000010"><a xlink:title=" ">
<polygon fill="#e0e0e0" stroke="#999999" points="363,-74 313,-74 313,-55 363,-55 363,-74"/>
<text text-anchor="middle" x="338" y="-62" font-family="Helvetica,sans-Serif" font-size="10.00">cstdint</text>
</a>
</g>
</g>
<!-- Node5&#45;&gt;Node10 -->
<g id="edge9_Node000005_Node000010" class="edge">
<title>Node5&#45;&gt;Node10</title>
<g id="a_edge9_Node000005_Node000010"><a xlink:title=" ">
<path fill="none" stroke="#63b8ff" d="M368.06,-109.75C363.02,-102.34 355.66,-91.5 349.49,-82.41"/>
<polygon fill="#63b8ff" stroke="#63b8ff" points="352.35,-80.39 343.83,-74.09 346.56,-84.33 352.35,-80.39"/>
</a>
</g>
</g>
<!-- Node5&#45;&gt;Node11 -->
<g id="edge10_Node000005_Node000011" class="edge">
<title>Node5&#45;&gt;Node11</title>
<g id="a_edge10_Node000005_Node000011"><a xlink:title=" ">
<path fill="none" stroke="#63b8ff" d="M427.51,-113.59C542.45,-103.03 810.71,-78.39 911.65,-69.11"/>
<polygon fill="#63b8ff" stroke="#63b8ff" points="912.09,-72.59 921.73,-68.19 911.45,-65.62 912.09,-72.59"/>
</a>
</g>
</g>
<!-- Node5&#45;&gt;Node12 -->
<g id="edge11_Node000005_Node000012" class="edge">
<title>Node5&#45;&gt;Node12</title>
<g id="a_edge11_Node000005_Node000012"><a xlink:title=" ">
<path fill="none" stroke="#63b8ff" d="M351.67,-109.98C328.8,-101.27 293.04,-87.63 267.14,-77.75"/>
<polygon fill="#63b8ff" stroke="#63b8ff" points="268.33,-74.46 257.74,-74.17 265.84,-81 268.33,-74.46"/>
</a>
</g>
</g>
<!-- Node7 -->
<g id="Node000007" class="node">
<title>Node7</title>
<g id="a_Node000007"><a xlink:title=" ">
<polygon fill="#e0e0e0" stroke="#999999" points="433.5,-19 386.5,-19 386.5,0 433.5,0 433.5,-19"/>
<text text-anchor="middle" x="410" y="-7" font-family="Helvetica,sans-Serif" font-size="10.00">cmath</text>
</a>
</g>
</g>
<!-- Node6&#45;&gt;Node7 -->
<g id="edge6_Node000006_Node000007" class="edge">
<title>Node6&#45;&gt;Node7</title>
<g id="a_edge6_Node000006_Node000007"><a xlink:title=" ">
<path fill="none" stroke="#63b8ff" d="M440.06,-54.75C435.02,-47.34 427.66,-36.5 421.49,-27.41"/>
<polygon fill="#63b8ff" stroke="#63b8ff" points="424.35,-25.39 415.83,-19.09 418.56,-29.33 424.35,-25.39"/>
</a>
</g>
</g>
<!-- Node8 -->
<g id="Node000008" class="node">
<title>Node8</title>
<g id="a_Node000008"><a xlink:title=" ">
<polygon fill="#e0e0e0" stroke="#999999" points="510.5,-19 451.5,-19 451.5,0 510.5,0 510.5,-19"/>
<text text-anchor="middle" x="481" y="-7" font-family="Helvetica,sans-Serif" font-size="10.00">numbers</text>
</a>
</g>
</g>
<!-- Node6&#45;&gt;Node8 -->
<g id="edge7_Node000006_Node000008" class="edge">
<title>Node6&#45;&gt;Node8</title>
<g id="a_edge7_Node000006_Node000008"><a xlink:title=" ">
<path fill="none" stroke="#63b8ff" d="M451.78,-54.75C456.62,-47.42 463.68,-36.73 469.64,-27.7"/>
<polygon fill="#63b8ff" stroke="#63b8ff" points="472.74,-29.36 475.33,-19.09 466.9,-25.5 472.74,-29.36"/>
</a>
</g>
</g>
<!-- Node13&#45;&gt;Node5 -->
<g id="edge29_Node000013_Node000005" class="edge">
<title>Node13&#45;&gt;Node5</title>
<g id="a_edge29_Node000013_Node000005"><a xlink:title=" ">
<path fill="none" stroke="#63b8ff" d="M632.46,-285.87C611.3,-277.5 578.94,-264.05 552,-250 510.77,-228.5 500.7,-222.22 463,-195 436.74,-176.05 408.38,-151.53 390.9,-135.91"/>
<polygon fill="#63b8ff" stroke="#63b8ff" points="393.02,-133.11 383.25,-129.01 388.34,-138.31 393.02,-133.11"/>
</a>
</g>
</g>
<!-- Node13&#45;&gt;Node11 -->
<g id="edge30_Node000013_Node000011" class="edge">
<title>Node13&#45;&gt;Node11</title>
<g id="a_edge30_Node000013_Node000011"><a xlink:title=" ">
<path fill="none" stroke="#63b8ff" d="M707.4,-290.6C750.57,-285.68 812.37,-274.65 861,-250 921.26,-219.45 938.7,-195.03 953,-129 956.18,-114.31 955.41,-97.26 953.99,-84.53"/>
<polygon fill="#63b8ff" stroke="#63b8ff" points="957.41,-83.69 952.6,-74.25 950.47,-84.63 957.41,-83.69"/>
</a>
</g>
</g>
<!-- Node13&#45;&gt;Node12 -->
<g id="edge33_Node000013_Node000012" class="edge">
<title>Node13&#45;&gt;Node12</title>
<g id="a_edge33_Node000013_Node000012"><a xlink:title=" ">
<path fill="none" stroke="#63b8ff" d="M618.44,-285.99C546.69,-267.78 385.39,-219.15 281,-129 265.91,-115.97 253.03,-97.07 244.77,-83.27"/>
<polygon fill="#63b8ff" stroke="#63b8ff" points="247.63,-81.22 239.61,-74.29 241.56,-84.71 247.63,-81.22"/>
</a>
</g>
</g>
<!-- Node14 -->
<g id="Node000014" class="node">
<title>Node14</title>
<g id="a_Node000014"><a xlink:href="itruss__view_8hpp.html" target="_top" xlink:title="Read&#45;only view interface for Truss data.">
<polygon fill="white" stroke="#666666" points="694,-195 590,-195 590,-165 694,-165 694,-195"/>
<text text-anchor="start" x="598" y="-183" font-family="Helvetica,sans-Serif" font-size="10.00">../interfaces/itruss</text>
<text text-anchor="middle" x="642" y="-172" font-family="Helvetica,sans-Serif" font-size="10.00">_view.hpp</text>
</a>
</g>
</g>
<!-- Node13&#45;&gt;Node14 -->
<g id="edge14_Node000013_Node000014" class="edge">
<title>Node13&#45;&gt;Node14</title>
<g id="a_edge14_Node000013_Node000014"><a xlink:title=" ">
<path fill="none" stroke="#63b8ff" d="M665.26,-285.77C678,-273.8 697.11,-251.46 689,-231 684.7,-220.15 676.8,-210.27 668.7,-202.22"/>
<polygon fill="#63b8ff" stroke="#63b8ff" points="671,-199.59 661.29,-195.37 666.25,-204.73 671,-199.59"/>
</a>
</g>
</g>
<!-- Node15 -->
<g id="Node000015" class="node">
<title>Node15</title>
<g id="a_Node000015"><a xlink:title=" ">
<polygon fill="#e0e0e0" stroke="#999999" points="744,-129 700,-129 700,-110 744,-110 744,-129"/>
<text text-anchor="middle" x="722" y="-117" font-family="Helvetica,sans-Serif" font-size="10.00">string</text>
</a>
</g>
</g>
<!-- Node13&#45;&gt;Node15 -->
<g id="edge31_Node000013_Node000015" class="edge">
<title>Node13&#45;&gt;Node15</title>
<g id="a_edge31_Node000013_Node000015"><a xlink:title=" ">
<path fill="none" stroke="#63b8ff" d="M668.79,-285.69C679.95,-277.77 695.06,-265.08 703,-250 721.81,-214.27 723.66,-165.74 723.03,-139.4"/>
<polygon fill="#63b8ff" stroke="#63b8ff" points="726.53,-139.14 722.64,-129.28 719.53,-139.41 726.53,-139.14"/>
</a>
</g>
</g>
<!-- Node16 -->
<g id="Node000016" class="node">
<title>Node16</title>
<g id="a_Node000016"><a xlink:href="src_2core_2model_2member_8hpp.html" target="_top" xlink:title="Member class representing structural elements in the truss.">
<polygon fill="white" stroke="#666666" points="852,-250 774,-250 774,-231 852,-231 852,-250"/>
<text text-anchor="middle" x="813" y="-238" font-family="Helvetica,sans-Serif" font-size="10.00">member.hpp</text>
</a>
</g>
</g>
<!-- Node13&#45;&gt;Node16 -->
<g id="edge19_Node000013_Node000016" class="edge">
<title>Node13&#45;&gt;Node16</title>
<g id="a_edge19_Node000013_Node000016"><a xlink:title=" ">
<path fill="none" stroke="#63b8ff" d="M680.39,-285.98C706.8,-277.13 748.35,-263.19 777.89,-253.28"/>
<polygon fill="#63b8ff" stroke="#63b8ff" points="779.05,-256.58 787.42,-250.08 776.82,-249.94 779.05,-256.58"/>
</a>
</g>
</g>
<!-- Node17 -->
<g id="Node000017" class="node">
<title>Node17</title>
<g id="a_Node000017"><a xlink:href="src_2core_2model_2node_8hpp.html" target="_top" xlink:title="Node class representing structural joints in the truss.">
<polygon fill="white" stroke="#666666" points="534,-189.5 472,-189.5 472,-170.5 534,-170.5 534,-189.5"/>
<text text-anchor="middle" x="503" y="-177.5" font-family="Helvetica,sans-Serif" font-size="10.00">node.hpp</text>
</a>
</g>
</g>
<!-- Node13&#45;&gt;Node17 -->
<g id="edge28_Node000013_Node000017" class="edge">
<title>Node13&#45;&gt;Node17</title>
<g id="a_edge28_Node000013_Node000017"><a xlink:title=" ">
<path fill="none" stroke="#63b8ff" d="M637.82,-285.96C621.75,-277.67 597.41,-264.27 578,-250 555.87,-233.73 533,-211.82 518.42,-197.09"/>
<polygon fill="#63b8ff" stroke="#63b8ff" points="520.73,-194.44 511.24,-189.73 515.72,-199.33 520.73,-194.44"/>
</a>
</g>
</g>
<!-- Node18 -->
<g id="Node000018" class="node">
<title>Node18</title>
<g id="a_Node000018"><a xlink:title=" ">
<polygon fill="#e0e0e0" stroke="#999999" points="679.5,-250 586.5,-250 586.5,-231 679.5,-231 679.5,-250"/>
<text text-anchor="middle" x="633" y="-238" font-family="Helvetica,sans-Serif" font-size="10.00">unordered_map</text>
</a>
</g>
</g>
<!-- Node13&#45;&gt;Node18 -->
<g id="edge32_Node000013_Node000018" class="edge">
<title>Node13&#45;&gt;Node18</title>
<g id="a_edge32_Node000013_Node000018"><a xlink:title=" ">
<path fill="none" stroke="#63b8ff" d="M651.37,-285.75C648.42,-278.65 644.17,-268.4 640.49,-259.56"/>
<polygon fill="#63b8ff" stroke="#63b8ff" points="643.63,-257.98 636.57,-250.09 637.17,-260.67 643.63,-257.98"/>
</a>
</g>
</g>
<!-- Node14&#45;&gt;Node5 -->
<g id="edge15_Node000014_Node000005" class="edge">
<title>Node14&#45;&gt;Node5</title>
<g id="a_edge15_Node000014_Node000005"><a xlink:title=" ">
<path fill="none" stroke="#63b8ff" d="M589.69,-167.58C541.44,-157.05 470.34,-141.53 423.12,-131.22"/>
<polygon fill="#63b8ff" stroke="#63b8ff" points="423.65,-127.76 413.14,-129.04 422.16,-134.59 423.65,-127.76"/>
</a>
</g>
</g>
<!-- Node14&#45;&gt;Node11 -->
<g id="edge16_Node000014_Node000011" class="edge">
<title>Node14&#45;&gt;Node11</title>
<g id="a_edge16_Node000014_Node000011"><a xlink:title=" ">
<path fill="none" stroke="#63b8ff" d="M647.98,-164.8C655.53,-148.75 670.11,-123.14 691,-110 727.08,-87.31 848.15,-74.09 911.54,-68.56"/>
<polygon fill="#63b8ff" stroke="#63b8ff" points="911.9,-72.05 921.57,-67.71 911.31,-65.07 911.9,-72.05"/>
</a>
</g>
</g>
<!-- Node14&#45;&gt;Node12 -->
<g id="edge18_Node000014_Node000012" class="edge">
<title>Node14&#45;&gt;Node12</title>
<g id="a_edge18_Node000014_Node000012"><a xlink:title=" ">
<path fill="none" stroke="#63b8ff" d="M604.22,-164.92C563.37,-150.01 496.16,-126.42 437,-110 378.4,-93.73 308.92,-79.51 268.61,-71.75"/>
<polygon fill="#63b8ff" stroke="#63b8ff" points="269.01,-68.26 258.53,-69.83 267.7,-75.14 269.01,-68.26"/>
</a>
</g>
</g>
<!-- Node14&#45;&gt;Node15 -->
<g id="edge17_Node000014_Node000015" class="edge">
<title>Node14&#45;&gt;Node15</title>
<g id="a_edge17_Node000014_Node000015"><a xlink:title=" ">
<path fill="none" stroke="#63b8ff" d="M661.37,-164.84C673.57,-155.91 689.31,-144.41 701.69,-135.35"/>
<polygon fill="#63b8ff" stroke="#63b8ff" points="704.01,-137.99 710.01,-129.27 699.87,-132.34 704.01,-137.99"/>
</a>
</g>
</g>
<!-- Node16&#45;&gt;Node5 -->
<g id="edge25_Node000016_Node000005" class="edge">
<title>Node16&#45;&gt;Node5</title>
<g id="a_edge25_Node000016_Node000005"><a xlink:title=" ">
<path fill="none" stroke="#63b8ff" d="M773.93,-237.66C726.39,-234.16 644.59,-224.08 581,-195 561.43,-186.05 562.25,-174.61 543,-165 510.03,-148.55 470.31,-137.69 437.67,-130.82"/>
<polygon fill="#63b8ff" stroke="#63b8ff" points="438.27,-127.37 427.78,-128.82 436.88,-134.24 438.27,-127.37"/>
</a>
</g>
</g>
<!-- Node16&#45;&gt;Node11 -->
<g id="edge26_Node000016_Node000011" class="edge">
<title>Node16&#45;&gt;Node11</title>
<g id="a_edge26_Node000016_Node000011"><a xlink:title=" ">
<path fill="none" stroke="#63b8ff" d="M838.94,-230.94C857.52,-223.74 882.14,-211.89 899,-195 930.14,-163.8 943.28,-111.54 948.28,-83.91"/>
<polygon fill="#63b8ff" stroke="#63b8ff" points="951.74,-84.45 949.91,-74.02 944.83,-83.32 951.74,-84.45"/>
</a>
</g>
</g>
<!-- Node16&#45;&gt;Node15 -->
<g id="edge27_Node000016_Node000015" class="edge">
<title>Node16&#45;&gt;Node15</title>
<g id="a_edge27_Node000016_Node000015"><a xlink:title=" ">
<path fill="none" stroke="#63b8ff" d="M806.46,-230.94C791.51,-211.4 754.64,-163.18 734.92,-137.4"/>
<polygon fill="#63b8ff" stroke="#63b8ff" points="737.59,-135.12 728.73,-129.3 732.02,-139.37 737.59,-135.12"/>
</a>
</g>
</g>
<!-- Node16&#45;&gt;Node17 -->
<g id="edge20_Node000016_Node000017" class="edge">
<title>Node16&#45;&gt;Node17</title>
<g id="a_edge20_Node000016_Node000017"><a xlink:title=" ">
<path fill="none" stroke="#63b8ff" d="M773.6,-234.58C721.55,-227.69 627.19,-213.88 548,-195 544.82,-194.24 541.53,-193.38 538.25,-192.46"/>
<polygon fill="#63b8ff" stroke="#63b8ff" points="539.12,-189.07 528.53,-189.6 537.14,-195.78 539.12,-189.07"/>
</a>
</g>
</g>
<!-- Node17&#45;&gt;Node5 -->
<g id="edge21_Node000017_Node000005" class="edge">
<title>Node17&#45;&gt;Node5</title>
<g id="a_edge21_Node000017_Node000005"><a xlink:title=" ">
<path fill="none" stroke="#63b8ff" d="M484.24,-170.49C462.65,-160.7 426.97,-144.52 402.07,-133.23"/>
<polygon fill="#63b8ff" stroke="#63b8ff" points="403.33,-129.96 392.78,-129.02 400.44,-136.33 403.33,-129.96"/>
</a>
</g>
</g>
<!-- Node17&#45;&gt;Node11 -->
<g id="edge22_Node000017_Node000011" class="edge">
<title>Node17&#45;&gt;Node11</title>
<g id="a_edge22_Node000017_Node000011"><a xlink:title=" ">
<path fill="none" stroke="#63b8ff" d="M519.63,-170.33C548.58,-155.62 610.44,-125.84 666,-110 751.74,-85.56 856.06,-73.59 911.65,-68.57"/>
<polygon fill="#63b8ff" stroke="#63b8ff" points="912.12,-72.04 921.77,-67.68 911.51,-65.07 912.12,-72.04"/>
</a>
</g>
</g>
<!-- Node17&#45;&gt;Node12 -->
<g id="edge24_Node000017_Node000012" class="edge">
<title>Node17&#45;&gt;Node12</title>
<g id="a_edge24_Node000017_Node000012"><a xlink:title=" ">
<path fill="none" stroke="#63b8ff" d="M471.76,-175.05C432.67,-169.19 364.49,-155.85 312,-129 288.05,-116.75 264.83,-96 250.26,-81.57"/>
<polygon fill="#63b8ff" stroke="#63b8ff" points="252.62,-78.97 243.11,-74.3 247.63,-83.88 252.62,-78.97"/>
</a>
</g>
</g>
<!-- Node17&#45;&gt;Node15 -->
<g id="edge23_Node000017_Node000015" class="edge">
<title>Node17&#45;&gt;Node15</title>
<g id="a_edge23_Node000017_Node000015"><a xlink:title=" ">
<path fill="none" stroke="#63b8ff" d="M534.38,-170.62C575.81,-159.55 648.38,-140.17 690.08,-129.03"/>
<polygon fill="#63b8ff" stroke="#63b8ff" points="691.22,-132.34 699.98,-126.38 689.42,-125.58 691.22,-132.34"/>
</a>
</g>
</g>
<!-- Node19&#45;&gt;Node11 -->
<g id="edge43_Node000019_Node000011" class="edge">
<title>Node19&#45;&gt;Node11</title>
<g id="a_edge43_Node000019_Node000011"><a xlink:title=" ">
<path fill="none" stroke="#63b8ff" d="M727.71,-342.98C841.64,-315.81 1108,-251.23 1108,-241.5 1108,-241.5 1108,-241.5 1108,-179 1108,-120.87 1036.45,-89.5 989.95,-75.25"/>
<polygon fill="#63b8ff" stroke="#63b8ff" points="990.74,-71.84 980.16,-72.39 988.78,-78.55 990.74,-71.84"/>
</a>
</g>
</g>
<!-- Node19&#45;&gt;Node12 -->
<g id="edge45_Node000019_Node000012" class="edge">
<title>Node19&#45;&gt;Node12</title>
<g id="a_edge45_Node000019_Node000012"><a xlink:title=" ">
<path fill="none" stroke="#63b8ff" d="M626.35,-347.86C506.59,-330.3 216,-283.38 216,-241.5 216,-241.5 216,-241.5 216,-179 216,-145.16 224.32,-106.41 229.95,-84.07"/>
<polygon fill="#63b8ff" stroke="#63b8ff" points="233.37,-84.81 232.52,-74.25 226.6,-83.03 233.37,-84.81"/>
</a>
</g>
</g>
<!-- Node19&#45;&gt;Node13 -->
<g id="edge42_Node000019_Node000013" class="edge">
<title>Node19&#45;&gt;Node13</title>
<g id="a_edge42_Node000019_Node000013"><a xlink:title=" ">
<path fill="none" stroke="#63b8ff" d="M671.67,-340.84C668.74,-333.04 665.07,-323.27 661.92,-314.89"/>
<polygon fill="#63b8ff" stroke="#63b8ff" points="665.09,-313.39 658.3,-305.27 658.54,-315.86 665.09,-313.39"/>
</a>
</g>
</g>
<!-- Node19&#45;&gt;Node15 -->
<g id="edge44_Node000019_Node000015" class="edge">
<title>Node19&#45;&gt;Node15</title>
<g id="a_edge44_Node000019_Node000015"><a xlink:title=" ">
<path fill="none" stroke="#63b8ff" d="M727.68,-342.05C766,-331.64 814.84,-316.84 832,-305 879.11,-272.49 887.74,-251.12 899,-195 901.62,-181.93 907.2,-175.51 899,-165 897.87,-163.55 804.77,-140.67 754.07,-128.3"/>
<polygon fill="#63b8ff" stroke="#63b8ff" points="754.78,-124.87 744.24,-125.9 753.12,-131.67 754.78,-124.87"/>
</a>
</g>
</g>
<!-- Node19&#45;&gt;Node16 -->
<g id="edge40_Node000019_Node000016" class="edge">
<title>Node19&#45;&gt;Node16</title>
<g id="a_edge40_Node000019_Node000016"><a xlink:title=" ">
<path fill="none" stroke="#63b8ff" d="M693.95,-340.85C719.65,-319.41 768.28,-278.82 794.74,-256.74"/>
<polygon fill="#63b8ff" stroke="#63b8ff" points="797.06,-259.37 802.49,-250.27 792.57,-253.99 797.06,-259.37"/>
</a>
</g>
</g>
<!-- Node19&#45;&gt;Node17 -->
<g id="edge41_Node000019_Node000017" class="edge">
<title>Node19&#45;&gt;Node17</title>
<g id="a_edge41_Node000019_Node000017"><a xlink:title=" ">
<path fill="none" stroke="#63b8ff" d="M647.92,-340.98C631.11,-332.06 610.17,-319.48 594,-305 558.18,-272.92 527.72,-224.61 512.81,-198.78"/>
<polygon fill="#63b8ff" stroke="#63b8ff" points="515.68,-196.75 507.72,-189.77 509.59,-200.2 515.68,-196.75"/>
</a>
</g>
</g>
<!-- Node20 -->
<g id="Node000020" class="node">
<title>Node20</title>
<g id="a_Node000020"><a xlink:href="load_8hpp.html" target="_top" xlink:title="Load class representing external forces applied to the truss.">
<polygon fill="white" stroke="#666666" points="889.5,-189.5 788.5,-189.5 788.5,-170.5 889.5,-170.5 889.5,-189.5"/>
<text text-anchor="middle" x="839" y="-177.5" font-family="Helvetica,sans-Serif" font-size="10.00">../model/load.hpp</text>
</a>
</g>
</g>
<!-- Node19&#45;&gt;Node20 -->
<g id="edge36_Node000019_Node000020" class="edge">
<title>Node19&#45;&gt;Node20</title>
<g id="a_edge36_Node000019_Node000020"><a xlink:title=" ">
<path fill="none" stroke="#63b8ff" d="M727.81,-341.6C771.75,-327.03 832.56,-298.98 861,-250 870.53,-233.59 861.17,-212.54 851.89,-198.03"/>
<polygon fill="#63b8ff" stroke="#63b8ff" points="854.58,-195.77 846,-189.56 848.83,-199.77 854.58,-195.77"/>
</a>
</g>
</g>
<!-- Node20&#45;&gt;Node5 -->
<g id="edge37_Node000020_Node000005" class="edge">
<title>Node20&#45;&gt;Node5</title>
<g id="a_edge37_Node000020_Node000005"><a xlink:title=" ">
<path fill="none" stroke="#63b8ff" d="M788.35,-172.63C703.16,-161.91 531.36,-140.3 437.97,-128.55"/>
<polygon fill="#63b8ff" stroke="#63b8ff" points="438.16,-125.04 427.8,-127.27 437.29,-131.99 438.16,-125.04"/>
</a>
</g>
</g>
<!-- Node20&#45;&gt;Node11 -->
<g id="edge38_Node000020_Node000011" class="edge">
<title>Node20&#45;&gt;Node11</title>
<g id="a_edge38_Node000020_Node000011"><a xlink:title=" ">
<path fill="none" stroke="#63b8ff" d="M855.83,-170.45C871.92,-161.67 896.16,-146.79 913,-129 925.81,-115.47 936.3,-96.89 942.99,-83.32"/>
<polygon fill="#63b8ff" stroke="#63b8ff" points="946.24,-84.63 947.34,-74.09 939.91,-81.65 946.24,-84.63"/>
</a>
</g>
</g>
<!-- Node20&#45;&gt;Node15 -->
<g id="edge39_Node000020_Node000015" class="edge">
<title>Node20&#45;&gt;Node15</title>
<g id="a_edge39_Node000020_Node000015"><a xlink:title=" ">
<path fill="none" stroke="#63b8ff" d="M821.99,-170.49C802.58,-160.79 770.61,-144.81 748.06,-133.53"/>
<polygon fill="#63b8ff" stroke="#63b8ff" points="749.54,-130.36 739.03,-129.02 746.41,-136.62 749.54,-130.36"/>
</a>
</g>
</g>
<!-- Node21&#45;&gt;Node5 -->
<g id="edge48_Node000021_Node000005" class="edge">
<title>Node21&#45;&gt;Node5</title>
<g id="a_edge48_Node000021_Node000005"><a xlink:title=" ">
<path fill="none" stroke="#63b8ff" d="M425.53,-340.7C403.62,-322.42 368.24,-288.51 354,-250 340.89,-214.57 346.08,-201.94 354,-165 355.97,-155.8 360,-146.2 363.93,-138.29"/>
<polygon fill="#63b8ff" stroke="#63b8ff" points="367.09,-139.79 368.68,-129.32 360.91,-136.51 367.09,-139.79"/>
</a>
</g>
</g>
<!-- Node21&#45;&gt;Node9 -->
<g id="edge49_Node000021_Node000009" class="edge">
<title>Node21&#45;&gt;Node9</title>
<g id="a_edge49_Node000021_Node000009"><a xlink:title=" ">
<path fill="none" stroke="#63b8ff" d="M441.1,-340.78C435.01,-306.86 424.48,-219.98 463,-165 499.96,-112.26 572.68,-86.46 621.32,-74.6"/>
<polygon fill="#63b8ff" stroke="#63b8ff" points="622.37,-77.95 631.31,-72.28 620.78,-71.14 622.37,-77.95"/>
</a>
</g>
</g>
<!-- Node21&#45;&gt;Node12 -->
<g id="edge50_Node000021_Node000012" class="edge">
<title>Node21&#45;&gt;Node12</title>
<g id="a_edge50_Node000021_Node000012"><a xlink:title=" ">
<path fill="none" stroke="#63b8ff" d="M387.12,-351C275.38,-341.58 38,-313.13 38,-241.5 38,-241.5 38,-241.5 38,-179 38,-104.65 144.65,-78.27 201.01,-69.51"/>
<polygon fill="#63b8ff" stroke="#63b8ff" points="201.84,-72.93 211.24,-68.03 200.84,-66 201.84,-72.93"/>
</a>
</g>
</g>
<!-- Node21&#45;&gt;Node13 -->
<g id="edge47_Node000021_Node000013" class="edge">
<title>Node21&#45;&gt;Node13</title>
<g id="a_edge47_Node000021_Node000013"><a xlink:title=" ">
<path fill="none" stroke="#63b8ff" d="M494.54,-340.99C531.27,-330.8 580.33,-317.2 614.49,-307.73"/>
<polygon fill="#63b8ff" stroke="#63b8ff" points="615.45,-311.1 624.15,-305.05 613.58,-304.35 615.45,-311.1"/>
</a>
</g>
</g>
<!-- Node22&#45;&gt;Node9 -->
<g id="edge52_Node000022_Node000009" class="edge">
<title>Node22&#45;&gt;Node9</title>
<g id="a_edge52_Node000022_Node000009"><a xlink:title=" ">
<path fill="none" stroke="#63b8ff" d="M822.76,-109.98C791.94,-101.01 743.22,-86.82 709.11,-76.89"/>
<polygon fill="#63b8ff" stroke="#63b8ff" points="710.05,-73.52 699.47,-74.08 708.09,-80.24 710.05,-73.52"/>
</a>
</g>
</g>
<!-- Node22&#45;&gt;Node11 -->
<g id="edge53_Node000022_Node000011" class="edge">
<title>Node22&#45;&gt;Node11</title>
<g id="a_edge53_Node000022_Node000011"><a xlink:title=" ">
<path fill="none" stroke="#63b8ff" d="M867.91,-109.98C883.55,-101.61 907.66,-88.7 925.88,-78.95"/>
<polygon fill="#63b8ff" stroke="#63b8ff" points="927.64,-81.98 934.8,-74.17 924.34,-75.8 927.64,-81.98"/>
</a>
</g>
</g>
<!-- Node23&#45;&gt;Node5 -->
<g id="edge57_Node000023_Node000005" class="edge">
<title>Node23&#45;&gt;Node5</title>
<g id="a_edge57_Node000023_Node000005"><a xlink:title=" ">
<path fill="none" stroke="#63b8ff" d="M767.26,-346.46C712.66,-335.94 624.86,-317.88 594,-305 509.92,-269.9 485.31,-259.54 421,-195 404.35,-178.29 390.71,-154.68 382.49,-138.54"/>
<polygon fill="#63b8ff" stroke="#63b8ff" points="385.43,-136.61 377.89,-129.17 379.15,-139.69 385.43,-136.61"/>
</a>
</g>
</g>
<!-- Node23&#45;&gt;Node9 -->
<g id="edge58_Node000023_Node000009" class="edge">
<title>Node23&#45;&gt;Node9</title>
<g id="a_edge58_Node000023_Node000009"><a xlink:title=" ">
<path fill="none" stroke="#63b8ff" d="M824.71,-346.12C860.45,-317.97 962.82,-228.82 915,-165 880.85,-119.42 844.85,-150.25 792,-129 782.22,-125.07 727.89,-96.35 695.12,-78.91"/>
<polygon fill="#63b8ff" stroke="#63b8ff" points="696.58,-75.72 686.11,-74.11 693.29,-81.9 696.58,-75.72"/>
</a>
</g>
</g>
<!-- Node23&#45;&gt;Node11 -->
<g id="edge59_Node000023_Node000011" class="edge">
<title>Node23&#45;&gt;Node11</title>
<g id="a_edge59_Node000023_Node000011"><a xlink:title=" ">
<path fill="none" stroke="#63b8ff" d="M880.33,-351.87C959.87,-346.86 1085.96,-334.44 1122,-305 1145.37,-285.91 1146,-271.67 1146,-241.5 1146,-241.5 1146,-241.5 1146,-179 1146,-146.53 1145.86,-132.02 1122,-110 1086.15,-76.91 1028.84,-67.76 990.57,-65.58"/>
<polygon fill="#63b8ff" stroke="#63b8ff" points="990.46,-62.07 980.32,-65.13 990.16,-69.06 990.46,-62.07"/>
</a>
</g>
</g>
<!-- Node23&#45;&gt;Node13 -->
<g id="edge56_Node000023_Node000013" class="edge">
<title>Node23&#45;&gt;Node13</title>
<g id="a_edge56_Node000023_Node000013"><a xlink:title=" ">
<path fill="none" stroke="#63b8ff" d="M790.03,-346.49C763.11,-336.53 718.33,-319.95 687.77,-308.63"/>
<polygon fill="#63b8ff" stroke="#63b8ff" points="688.6,-305.21 678,-305.02 686.16,-311.77 688.6,-305.21"/>
</a>
</g>
</g>
<!-- Node23&#45;&gt;Node16 -->
<g id="edge55_Node000023_Node000016" class="edge">
<title>Node23&#45;&gt;Node16</title>
<g id="a_edge55_Node000023_Node000016"><a xlink:title=" ">
<path fill="none" stroke="#63b8ff" d="M813,-346.47C813,-328.23 813,-285.07 813,-260.14"/>
<polygon fill="#63b8ff" stroke="#63b8ff" points="816.5,-260.13 813,-250.13 809.5,-260.13 816.5,-260.13"/>
</a>
</g>
</g>
</g>
</svg>
