<?xml version="1.0" encoding="UTF-8" standalone="no"?>
<!DOCTYPE svg PUBLIC "-//W3C//DTD SVG 1.1//EN"
 "http://www.w3.org/Graphics/SVG/1.1/DTD/svg11.dtd">
<!-- Generated by graphviz version 2.43.0 (0)
 -->
<!-- Title: truss::application::TrussApplicationService::saveTruss Pages: 1 -->
<svg width="344pt" height="67pt"
 viewBox="0.00 0.00 344.00 67.00" xmlns="http://www.w3.org/2000/svg" xmlns:xlink="http://www.w3.org/1999/xlink">
<g id="graph0" class="graph" transform="scale(1 1) rotate(0) translate(4 63)">
<title>truss::application::TrussApplicationService::saveTruss</title>
<!-- Node1 -->
<g id="Node000001" class="node">
<title>Node1</title>
<g id="a_Node000001"><a xlink:title="Save truss to file (auto&#45;detects format from extension)">
<polygon fill="#999999" stroke="#666666" points="336,-41 198,-41 198,0 336,0 336,-41"/>
<text text-anchor="start" x="206" y="-29" font-family="Helvetica,sans-Serif" font-size="10.00">truss::application</text>
<text text-anchor="start" x="206" y="-18" font-family="Helvetica,sans-Serif" font-size="10.00">::TrussApplicationService</text>
<text text-anchor="middle" x="267" y="-7" font-family="Helvetica,sans-Serif" font-size="10.00">::saveTruss</text>
</a>
</g>
</g>
<!-- Node1&#45;&gt;Node1 -->
<g id="edge2_Node000001_Node000001" class="edge">
<title>Node1&#45;&gt;Node1</title>
<g id="a_edge2_Node000001_Node000001"><a xlink:title=" ">
<path fill="none" stroke="#63b8ff" d="M299,-50.96C294.24,-55.74 283.57,-59 267,-59 240.48,-59 229.09,-50.65 232.81,-41.1"/>
<polygon fill="#63b8ff" stroke="#63b8ff" points="302.44,-51.62 301.19,-41.1 295.61,-50.1 302.44,-51.62"/>
</a>
</g>
</g>
<!-- Node2 -->
<g id="Node000002" class="node">
<title>Node2</title>
<g id="a_Node000002"><a xlink:href="classtruss_1_1interface_1_1TrussAnalysisFacade.html#a9fa0047c55817e30411249cdba158866" target="_top" xlink:title="Save a truss model to a file (format auto&#45;detected from extension).">
<polygon fill="white" stroke="#666666" points="162,-35.5 0,-35.5 0,-5.5 162,-5.5 162,-35.5"/>
<text text-anchor="start" x="8" y="-23.5" font-family="Helvetica,sans-Serif" font-size="10.00">truss::interface::TrussAnalysis</text>
<text text-anchor="middle" x="81" y="-12.5" font-family="Helvetica,sans-Serif" font-size="10.00">Facade::saveTruss</text>
</a>
</g>
</g>
<!-- Node1&#45;&gt;Node2 -->
<g id="edge1_Node000001_Node000002" class="edge">
<title>Node1&#45;&gt;Node2</title>
<g id="a_edge1_Node000001_Node000002"><a xlink:title=" ">
<path fill="none" stroke="#63b8ff" d="M187.61,-20.5C179.22,-20.5 170.68,-20.5 162.27,-20.5"/>
<polygon fill="#63b8ff" stroke="#63b8ff" points="187.75,-24 197.75,-20.5 187.75,-17 187.75,-24"/>
</a>
</g>
</g>
</g>
</svg>
