<?xml version="1.0" encoding="UTF-8" standalone="no"?>
<!DOCTYPE svg PUBLIC "-//W3C//DTD SVG 1.1//EN"
 "http://www.w3.org/Graphics/SVG/1.1/DTD/svg11.dtd">
<!-- Generated by graphviz version 2.43.0 (0)
 -->
<!-- Title: truss::core::interfaces::IAnalysisResultsView::getReactions Pages: 1 -->
<svg width="306pt" height="285pt"
 viewBox="0.00 0.00 306.00 285.00" xmlns="http://www.w3.org/2000/svg" xmlns:xlink="http://www.w3.org/1999/xlink">
<g id="graph0" class="graph" transform="scale(1 1) rotate(0) translate(4 281)">
<title>truss::core::interfaces::IAnalysisResultsView::getReactions</title>
<!-- Node1 -->
<g id="Node000001" class="node">
<title>Node1</title>
<g id="a_Node000001"><a xlink:title="Support reaction force vector, indexed by constrained DOF.">
<polygon fill="#999999" stroke="#666666" points="298,-159 171,-159 171,-118 298,-118 298,-159"/>
<text text-anchor="start" x="179" y="-147" font-family="Helvetica,sans-Serif" font-size="10.00">truss::core::interfaces</text>
<text text-anchor="start" x="179" y="-136" font-family="Helvetica,sans-Serif" font-size="10.00">::IAnalysisResultsView</text>
<text text-anchor="middle" x="234.5" y="-125" font-family="Helvetica,sans-Serif" font-size="10.00">::getReactions</text>
</a>
</g>
</g>
<!-- Node2 -->
<g id="Node000002" class="node">
<title>Node2</title>
<g id="a_Node000002"><a xlink:href="classtruss_1_1infrastructure_1_1export___1_1HTMLExporter.html#a6cd83800aa34de6c0c14b00fc3bb8d71" target="_top" xlink:title="Export analysis results to HTML file.">
<polygon fill="white" stroke="#666666" points="134.5,-277 0.5,-277 0.5,-236 134.5,-236 134.5,-277"/>
<text text-anchor="start" x="8.5" y="-265" font-family="Helvetica,sans-Serif" font-size="10.00">truss::infrastructure</text>
<text text-anchor="start" x="8.5" y="-254" font-family="Helvetica,sans-Serif" font-size="10.00">::export_::HTMLExporter</text>
<text text-anchor="middle" x="67.5" y="-243" font-family="Helvetica,sans-Serif" font-size="10.00">::exportResults</text>
</a>
</g>
</g>
<!-- Node1&#45;&gt;Node2 -->
<g id="edge1_Node000001_Node000002" class="edge">
<title>Node1&#45;&gt;Node2</title>
<g id="a_edge1_Node000001_Node000002"><a xlink:title=" ">
<path fill="none" stroke="#63b8ff" d="M207.29,-166.56C188.49,-185.53 161.84,-210.18 135,-227.5 130.34,-230.5 125.32,-233.33 120.2,-235.96"/>
<polygon fill="#63b8ff" stroke="#63b8ff" points="209.86,-168.93 214.34,-159.33 204.85,-164.04 209.86,-168.93"/>
</a>
</g>
</g>
<!-- Node3 -->
<g id="Node000003" class="node">
<title>Node3</title>
<g id="a_Node000003"><a xlink:href="classtruss_1_1infrastructure_1_1export___1_1JSONExporter.html#a246c62d9402370e4de51ba7310ee105b" target="_top" xlink:title="Export analysis results to JSON file.">
<polygon fill="white" stroke="#666666" points="133,-218 2,-218 2,-177 133,-177 133,-218"/>
<text text-anchor="start" x="10" y="-206" font-family="Helvetica,sans-Serif" font-size="10.00">truss::infrastructure</text>
<text text-anchor="start" x="10" y="-195" font-family="Helvetica,sans-Serif" font-size="10.00">::export_::JSONExporter</text>
<text text-anchor="middle" x="67.5" y="-184" font-family="Helvetica,sans-Serif" font-size="10.00">::exportResults</text>
</a>
</g>
</g>
<!-- Node1&#45;&gt;Node3 -->
<g id="edge2_Node000001_Node000003" class="edge">
<title>Node1&#45;&gt;Node3</title>
<g id="a_edge2_Node000001_Node000003"><a xlink:title=" ">
<path fill="none" stroke="#63b8ff" d="M166.18,-162.57C152.81,-167.35 138.9,-172.33 125.9,-176.98"/>
<polygon fill="#63b8ff" stroke="#63b8ff" points="167.55,-165.8 175.79,-159.14 165.2,-159.21 167.55,-165.8"/>
</a>
</g>
</g>
<!-- Node4 -->
<g id="Node000004" class="node">
<title>Node4</title>
<g id="a_Node000004"><a xlink:href="classtruss_1_1infrastructure_1_1export___1_1LaTeXExporter.html#a3743a701c86ed9edfa4a301fcb94752a" target="_top" xlink:title="Export analysis results to LaTeX file.">
<polygon fill="white" stroke="#666666" points="135,-159 0,-159 0,-118 135,-118 135,-159"/>
<text text-anchor="start" x="8" y="-147" font-family="Helvetica,sans-Serif" font-size="10.00">truss::infrastructure</text>
<text text-anchor="start" x="8" y="-136" font-family="Helvetica,sans-Serif" font-size="10.00">::export_::LaTeXExporter</text>
<text text-anchor="middle" x="67.5" y="-125" font-family="Helvetica,sans-Serif" font-size="10.00">::exportResults</text>
</a>
</g>
</g>
<!-- Node1&#45;&gt;Node4 -->
<g id="edge3_Node000001_Node000004" class="edge">
<title>Node1&#45;&gt;Node4</title>
<g id="a_edge3_Node000001_Node000004"><a xlink:title=" ">
<path fill="none" stroke="#63b8ff" d="M160.43,-138.5C151.97,-138.5 143.38,-138.5 135.02,-138.5"/>
<polygon fill="#63b8ff" stroke="#63b8ff" points="160.65,-142 170.65,-138.5 160.65,-135 160.65,-142"/>
</a>
</g>
</g>
<!-- Node5 -->
<g id="Node000005" class="node">
<title>Node5</title>
<g id="a_Node000005"><a xlink:href="classtruss_1_1infrastructure_1_1export___1_1TextExporter.html#afdb076ee5d25bd3e61dffbf4724ccd8f" target="_top" xlink:title="Export analysis results to text file.">
<polygon fill="white" stroke="#666666" points="131,-100 4,-100 4,-59 131,-59 131,-100"/>
<text text-anchor="start" x="12" y="-88" font-family="Helvetica,sans-Serif" font-size="10.00">truss::infrastructure</text>
<text text-anchor="start" x="12" y="-77" font-family="Helvetica,sans-Serif" font-size="10.00">::export_::TextExporter</text>
<text text-anchor="middle" x="67.5" y="-66" font-family="Helvetica,sans-Serif" font-size="10.00">::exportResults</text>
</a>
</g>
</g>
<!-- Node1&#45;&gt;Node5 -->
<g id="edge4_Node000001_Node000005" class="edge">
<title>Node1&#45;&gt;Node5</title>
<g id="a_edge4_Node000001_Node000005"><a xlink:title=" ">
<path fill="none" stroke="#63b8ff" d="M166.18,-114.43C152.81,-109.65 138.9,-104.67 125.9,-100.02"/>
<polygon fill="#63b8ff" stroke="#63b8ff" points="165.2,-117.79 175.79,-117.86 167.55,-111.2 165.2,-117.79"/>
</a>
</g>
</g>
<!-- Node6 -->
<g id="Node000006" class="node">
<title>Node6</title>
<g id="a_Node000006"><a xlink:href="classtruss_1_1infrastructure_1_1export___1_1XMLExporter.html#a7a52e51b57e0111038c178ffcebed207" target="_top" xlink:title="Export analysis results to XML file.">
<polygon fill="white" stroke="#666666" points="131.5,-41 3.5,-41 3.5,0 131.5,0 131.5,-41"/>
<text text-anchor="start" x="11.5" y="-29" font-family="Helvetica,sans-Serif" font-size="10.00">truss::infrastructure</text>
<text text-anchor="start" x="11.5" y="-18" font-family="Helvetica,sans-Serif" font-size="10.00">::export_::XMLExporter</text>
<text text-anchor="middle" x="67.5" y="-7" font-family="Helvetica,sans-Serif" font-size="10.00">::exportResults</text>
</a>
</g>
</g>
<!-- Node1&#45;&gt;Node6 -->
<g id="edge5_Node000001_Node000006" class="edge">
<title>Node1&#45;&gt;Node6</title>
<g id="a_edge5_Node000001_Node000006"><a xlink:title=" ">
<path fill="none" stroke="#63b8ff" d="M206.81,-110.53C187.97,-91.87 161.48,-67.71 135,-50.5 129.9,-47.19 124.38,-44.06 118.77,-41.17"/>
<polygon fill="#63b8ff" stroke="#63b8ff" points="204.35,-113.02 213.88,-117.63 209.31,-108.08 204.35,-113.02"/>
</a>
</g>
</g>
</g>
</svg>
