<?xml version="1.0" encoding="UTF-8" standalone="no"?>
<!DOCTYPE svg PUBLIC "-//W3C//DTD SVG 1.1//EN"
 "http://www.w3.org/Graphics/SVG/1.1/DTD/svg11.dtd">
<!-- Generated by graphviz version 2.43.0 (0)
 -->
<!-- Title: truss::interface::TrussAnalysisFacade::validateFromFile Pages: 1 -->
<svg width="1138pt" height="518pt"
 viewBox="0.00 0.00 1138.00 518.42" xmlns="http://www.w3.org/2000/svg" xmlns:xlink="http://www.w3.org/1999/xlink">
<g id="graph0" class="graph" transform="scale(1 1) rotate(0) translate(4 514.42)">
<title>truss::interface::TrussAnalysisFacade::validateFromFile</title>
<!-- Node1 -->
<g id="Node000001" class="node">
<title>Node1</title>
<g id="a_Node000001"><a xlink:title="Complete workflow: load → validate (no analysis)">
<polygon fill="#999999" stroke="#666666" points="162,-425.5 0,-425.5 0,-395.5 162,-395.5 162,-425.5"/>
<text text-anchor="start" x="8" y="-413.5" font-family="Helvetica,sans-Serif" font-size="10.00">truss::interface::TrussAnalysis</text>
<text text-anchor="middle" x="81" y="-402.5" font-family="Helvetica,sans-Serif" font-size="10.00">Facade::validateFromFile</text>
</a>
</g>
</g>
<!-- Node2 -->
<g id="Node000002" class="node">
<title>Node2</title>
<g id="a_Node000002"><a xlink:href="classtruss_1_1core_1_1validation_1_1ValidationResult.html#aa47af9cfbf450fc2339e9cb738068c26" target="_top" xlink:title="Add a validation issue to the result.">
<polygon fill="white" stroke="#666666" points="1130,-250.5 978,-250.5 978,-220.5 1130,-220.5 1130,-250.5"/>
<text text-anchor="start" x="986" y="-238.5" font-family="Helvetica,sans-Serif" font-size="10.00">truss::core::validation</text>
<text text-anchor="middle" x="1054" y="-227.5" font-family="Helvetica,sans-Serif" font-size="10.00">::ValidationResult::addIssue</text>
</a>
</g>
</g>
<!-- Node1&#45;&gt;Node2 -->
<g id="edge1_Node000001_Node000002" class="edge">
<title>Node1&#45;&gt;Node2</title>
<g id="a_edge1_Node000001_Node000002"><a xlink:title=" ">
<path fill="none" stroke="#63b8ff" d="M117.73,-425.56C140.37,-434.57 170.48,-445.58 198,-452.5 313.87,-481.65 344.51,-491.5 464,-491.5 464,-491.5 464,-491.5 640,-491.5 774.58,-491.5 830.95,-545.52 942,-469.5 1014.27,-420.03 1040.82,-310.39 1049.39,-260.77"/>
<polygon fill="#63b8ff" stroke="#63b8ff" points="1052.89,-261.02 1051.04,-250.59 1045.98,-259.9 1052.89,-261.02"/>
</a>
</g>
</g>
<!-- Node3 -->
<g id="Node000003" class="node">
<title>Node3</title>
<g id="a_Node000003"><a xlink:href="classtruss_1_1interface_1_1TrussAnalysisFacade.html#a9078ca81a42c2c0df3e2e1abd170aebf" target="_top" xlink:title="Remove all data associated with a specific truss handle.">
<polygon fill="white" stroke="#666666" points="360,-443.5 198,-443.5 198,-413.5 360,-413.5 360,-443.5"/>
<text text-anchor="start" x="206" y="-431.5" font-family="Helvetica,sans-Serif" font-size="10.00">truss::interface::TrussAnalysis</text>
<text text-anchor="middle" x="279" y="-420.5" font-family="Helvetica,sans-Serif" font-size="10.00">Facade::clearTruss</text>
</a>
</g>
</g>
<!-- Node1&#45;&gt;Node3 -->
<g id="edge2_Node000001_Node000003" class="edge">
<title>Node1&#45;&gt;Node3</title>
<g id="a_edge2_Node000001_Node000003"><a xlink:title=" ">
<path fill="none" stroke="#63b8ff" d="M162,-417.85C170.52,-418.63 179.23,-419.43 187.86,-420.22"/>
<polygon fill="#63b8ff" stroke="#63b8ff" points="187.66,-423.72 197.93,-421.15 188.3,-416.75 187.66,-423.72"/>
</a>
</g>
</g>
<!-- Node5 -->
<g id="Node000005" class="node">
<title>Node5</title>
<g id="a_Node000005"><a xlink:href="classtruss_1_1interface_1_1TrussAnalysisFacade.html#a5fa10da6db8404ee3d36a5b0771b67a7" target="_top" xlink:title="Load a truss model from a file (format auto&#45;detected from extension).">
<polygon fill="white" stroke="#666666" points="360,-387.5 198,-387.5 198,-357.5 360,-357.5 360,-387.5"/>
<text text-anchor="start" x="206" y="-375.5" font-family="Helvetica,sans-Serif" font-size="10.00">truss::interface::TrussAnalysis</text>
<text text-anchor="middle" x="279" y="-364.5" font-family="Helvetica,sans-Serif" font-size="10.00">Facade::loadTruss</text>
</a>
</g>
</g>
<!-- Node1&#45;&gt;Node5 -->
<g id="edge4_Node000001_Node000005" class="edge">
<title>Node1&#45;&gt;Node5</title>
<g id="a_edge4_Node000001_Node000005"><a xlink:title=" ">
<path fill="none" stroke="#63b8ff" d="M159.46,-395.48C169.68,-393.5 180.21,-391.46 190.58,-389.45"/>
<polygon fill="#63b8ff" stroke="#63b8ff" points="191.31,-392.87 200.46,-387.53 189.97,-386 191.31,-392.87"/>
</a>
</g>
</g>
<!-- Node10 -->
<g id="Node000010" class="node">
<title>Node10</title>
<g id="a_Node000010"><a xlink:href="classtruss_1_1interface_1_1TrussAnalysisFacade.html#a69f028ba718cd7dd67762edd191d7943" target="_top" xlink:title="Run the full structural validation suite on a truss.">
<polygon fill="white" stroke="#666666" points="360,-334.5 198,-334.5 198,-304.5 360,-304.5 360,-334.5"/>
<text text-anchor="start" x="206" y="-322.5" font-family="Helvetica,sans-Serif" font-size="10.00">truss::interface::TrussAnalysis</text>
<text text-anchor="middle" x="279" y="-311.5" font-family="Helvetica,sans-Serif" font-size="10.00">Facade::validateTruss</text>
</a>
</g>
</g>
<!-- Node1&#45;&gt;Node10 -->
<g id="edge10_Node000001_Node000010" class="edge">
<title>Node1&#45;&gt;Node10</title>
<g id="a_edge10_Node000001_Node000010"><a xlink:title=" ">
<path fill="none" stroke="#63b8ff" d="M107.73,-395.37C130.89,-382.09 166.09,-362.72 198,-348.5 206.04,-344.92 214.67,-341.43 223.18,-338.19"/>
<polygon fill="#63b8ff" stroke="#63b8ff" points="224.55,-341.41 232.7,-334.64 222.11,-334.85 224.55,-341.41"/>
</a>
</g>
</g>
<!-- Node4 -->
<g id="Node000004" class="node">
<title>Node4</title>
<g id="a_Node000004"><a xlink:href="classtruss_1_1application_1_1TrussApplicationService.html#ad0fa67045612b7b6f738fe12b8873b67" target="_top" xlink:title="Clear/delete truss model.">
<polygon fill="white" stroke="#666666" points="534,-463 396,-463 396,-422 534,-422 534,-463"/>
<text text-anchor="start" x="404" y="-451" font-family="Helvetica,sans-Serif" font-size="10.00">truss::application</text>
<text text-anchor="start" x="404" y="-440" font-family="Helvetica,sans-Serif" font-size="10.00">::TrussApplicationService</text>
<text text-anchor="middle" x="465" y="-429" font-family="Helvetica,sans-Serif" font-size="10.00">::clearTruss</text>
</a>
</g>
</g>
<!-- Node3&#45;&gt;Node4 -->
<g id="edge3_Node000003_Node000004" class="edge">
<title>Node3&#45;&gt;Node4</title>
<g id="a_edge3_Node000003_Node000004"><a xlink:title=" ">
<path fill="none" stroke="#63b8ff" d="M360.17,-434.6C368.64,-435.24 377.24,-435.9 385.69,-436.54"/>
<polygon fill="#63b8ff" stroke="#63b8ff" points="385.66,-440.05 395.9,-437.32 386.19,-433.07 385.66,-440.05"/>
</a>
</g>
</g>
<!-- Node6 -->
<g id="Node000006" class="node">
<title>Node6</title>
<g id="a_Node000006"><a xlink:href="classtruss_1_1application_1_1TrussApplicationService.html#a6af1f0977914627709887f8f6de6d7b6" target="_top" xlink:title="Load truss from file (auto&#45;detects format)">
<polygon fill="white" stroke="#666666" points="534,-386 396,-386 396,-345 534,-345 534,-386"/>
<text text-anchor="start" x="404" y="-374" font-family="Helvetica,sans-Serif" font-size="10.00">truss::application</text>
<text text-anchor="start" x="404" y="-363" font-family="Helvetica,sans-Serif" font-size="10.00">::TrussApplicationService</text>
<text text-anchor="middle" x="465" y="-352" font-family="Helvetica,sans-Serif" font-size="10.00">::loadTruss</text>
</a>
</g>
</g>
<!-- Node5&#45;&gt;Node6 -->
<g id="edge5_Node000005_Node000006" class="edge">
<title>Node5&#45;&gt;Node6</title>
<g id="a_edge5_Node000005_Node000006"><a xlink:title=" ">
<path fill="none" stroke="#63b8ff" d="M360.17,-369.45C368.64,-369.13 377.24,-368.8 385.69,-368.48"/>
<polygon fill="#63b8ff" stroke="#63b8ff" points="386.04,-371.97 395.9,-368.09 385.77,-364.97 386.04,-371.97"/>
</a>
</g>
</g>
<!-- Node6&#45;&gt;Node6 -->
<g id="edge9_Node000006_Node000006" class="edge">
<title>Node6&#45;&gt;Node6</title>
<g id="a_edge9_Node000006_Node000006"><a xlink:title=" ">
<path fill="none" stroke="#63b8ff" d="M433.02,-386.1C429.53,-395.65 440.19,-404 465,-404 480.51,-404 490.48,-400.74 494.94,-395.96"/>
<polygon fill="#63b8ff" stroke="#63b8ff" points="498.38,-396.6 496.98,-386.1 491.52,-395.18 498.38,-396.6"/>
</a>
</g>
</g>
<!-- Node7 -->
<g id="Node000007" class="node">
<title>Node7</title>
<g id="a_Node000007"><a xlink:href="classtruss_1_1infrastructure_1_1io_1_1FileIOFactory.html#a6a20a62a4a27dcadeb44243c586d5e9e" target="_top" xlink:title="Detect file format from file extension.">
<polygon fill="white" stroke="#666666" points="695.5,-452 582.5,-452 582.5,-411 695.5,-411 695.5,-452"/>
<text text-anchor="start" x="590.5" y="-440" font-family="Helvetica,sans-Serif" font-size="10.00">truss::infrastructure</text>
<text text-anchor="start" x="590.5" y="-429" font-family="Helvetica,sans-Serif" font-size="10.00">::io::FileIOFactory::</text>
<text text-anchor="middle" x="639" y="-418" font-family="Helvetica,sans-Serif" font-size="10.00">detectFormat</text>
</a>
</g>
</g>
<!-- Node6&#45;&gt;Node7 -->
<g id="edge6_Node000006_Node000007" class="edge">
<title>Node6&#45;&gt;Node7</title>
<g id="a_edge6_Node000006_Node000007"><a xlink:title=" ">
<path fill="none" stroke="#63b8ff" d="M519.48,-386.02C537.11,-392.79 556.89,-400.38 575.16,-407.39"/>
<polygon fill="#63b8ff" stroke="#63b8ff" points="573.96,-410.68 584.55,-410.99 576.47,-404.14 573.96,-410.68"/>
</a>
</g>
</g>
<!-- Node9 -->
<g id="Node000009" class="node">
<title>Node9</title>
<g id="a_Node000009"><a xlink:href="structtruss_1_1application_1_1Result.html#a053316ac5f18e56102eb9a500cb77cf0" target="_top" xlink:title="Construct a failure result carrying an error message.">
<polygon fill="white" stroke="#666666" points="689.5,-380.5 588.5,-380.5 588.5,-350.5 689.5,-350.5 689.5,-380.5"/>
<text text-anchor="start" x="596.5" y="-368.5" font-family="Helvetica,sans-Serif" font-size="10.00">truss::application</text>
<text text-anchor="middle" x="639" y="-357.5" font-family="Helvetica,sans-Serif" font-size="10.00">::Result::Failure</text>
</a>
</g>
</g>
<!-- Node6&#45;&gt;Node9 -->
<g id="edge8_Node000006_Node000009" class="edge">
<title>Node6&#45;&gt;Node9</title>
<g id="a_edge8_Node000006_Node000009"><a xlink:title=" ">
<path fill="none" stroke="#63b8ff" d="M534.47,-365.5C548.95,-365.5 564.11,-365.5 578.23,-365.5"/>
<polygon fill="#63b8ff" stroke="#63b8ff" points="578.31,-369 588.31,-365.5 578.31,-362 578.31,-369"/>
</a>
</g>
</g>
<!-- Node8 -->
<g id="Node000008" class="node">
<title>Node8</title>
<g id="a_Node000008"><a xlink:href="namespacetruss_1_1infrastructure_1_1io.html#a34eac675136061d3f285a2ece9c4b71b" target="_top" xlink:title="Detect file format from extension.">
<polygon fill="white" stroke="#666666" points="903,-460.5 783,-460.5 783,-430.5 903,-430.5 903,-460.5"/>
<text text-anchor="start" x="791" y="-448.5" font-family="Helvetica,sans-Serif" font-size="10.00">truss::infrastructure</text>
<text text-anchor="middle" x="843" y="-437.5" font-family="Helvetica,sans-Serif" font-size="10.00">::io::detectFileFormat</text>
</a>
</g>
</g>
<!-- Node7&#45;&gt;Node8 -->
<g id="edge7_Node000007_Node000008" class="edge">
<title>Node7&#45;&gt;Node8</title>
<g id="a_edge7_Node000007_Node000008"><a xlink:title=" ">
<path fill="none" stroke="#63b8ff" d="M695.73,-435.36C719.54,-437.01 747.59,-438.96 772.72,-440.7"/>
<polygon fill="#63b8ff" stroke="#63b8ff" points="772.7,-444.21 782.92,-441.41 773.19,-437.22 772.7,-444.21"/>
</a>
</g>
</g>
<!-- Node11 -->
<g id="Node000011" class="node">
<title>Node11</title>
<g id="a_Node000011"><a xlink:href="classtruss_1_1application_1_1TrussApplicationService.html#a5e70cf897aa24d53b7cf1d6abead626d" target="_top" xlink:title="Validate truss structure.">
<polygon fill="white" stroke="#666666" points="534,-327 396,-327 396,-286 534,-286 534,-327"/>
<text text-anchor="start" x="404" y="-315" font-family="Helvetica,sans-Serif" font-size="10.00">truss::application</text>
<text text-anchor="start" x="404" y="-304" font-family="Helvetica,sans-Serif" font-size="10.00">::TrussApplicationService</text>
<text text-anchor="middle" x="465" y="-293" font-family="Helvetica,sans-Serif" font-size="10.00">::validateTruss</text>
</a>
</g>
</g>
<!-- Node10&#45;&gt;Node11 -->
<g id="edge11_Node000010_Node000011" class="edge">
<title>Node10&#45;&gt;Node11</title>
<g id="a_edge11_Node000010_Node000011"><a xlink:title=" ">
<path fill="none" stroke="#63b8ff" d="M360.17,-313.84C368.64,-313.24 377.24,-312.63 385.69,-312.03"/>
<polygon fill="#63b8ff" stroke="#63b8ff" points="386.17,-315.51 395.9,-311.31 385.67,-308.53 386.17,-315.51"/>
</a>
</g>
</g>
<!-- Node11&#45;&gt;Node9 -->
<g id="edge12_Node000011_Node000009" class="edge">
<title>Node11&#45;&gt;Node9</title>
<g id="a_edge12_Node000011_Node000009"><a xlink:title=" ">
<path fill="none" stroke="#63b8ff" d="M526.16,-327.14C545.13,-333.64 565.94,-340.78 584.42,-347.12"/>
<polygon fill="#63b8ff" stroke="#63b8ff" points="583.54,-350.52 594.13,-350.45 585.81,-343.9 583.54,-350.52"/>
</a>
</g>
</g>
<!-- Node12 -->
<g id="Node000012" class="node">
<title>Node12</title>
<g id="a_Node000012"><a xlink:href="classtruss_1_1application_1_1TrussApplicationService.html#a10be762095182a928068c15bf18ecc55" target="_top" xlink:title="Check if handle is valid.">
<polygon fill="white" stroke="#666666" points="708,-332 570,-332 570,-291 708,-291 708,-332"/>
<text text-anchor="start" x="578" y="-320" font-family="Helvetica,sans-Serif" font-size="10.00">truss::application</text>
<text text-anchor="start" x="578" y="-309" font-family="Helvetica,sans-Serif" font-size="10.00">::TrussApplicationService</text>
<text text-anchor="middle" x="639" y="-298" font-family="Helvetica,sans-Serif" font-size="10.00">::isValidTrussHandle</text>
</a>
</g>
</g>
<!-- Node11&#45;&gt;Node12 -->
<g id="edge13_Node000011_Node000012" class="edge">
<title>Node11&#45;&gt;Node12</title>
<g id="a_edge13_Node000011_Node000012"><a xlink:title=" ">
<path fill="none" stroke="#63b8ff" d="M534.47,-308.49C542.73,-308.73 551.22,-308.98 559.6,-309.22"/>
<polygon fill="#63b8ff" stroke="#63b8ff" points="559.66,-312.72 569.76,-309.52 559.87,-305.73 559.66,-312.72"/>
</a>
</g>
</g>
<!-- Node13 -->
<g id="Node000013" class="node">
<title>Node13</title>
<g id="a_Node000013"><a xlink:href="structtruss_1_1application_1_1Result.html#a3a31735809021c26f8c9fc0c7a1be351" target="_top" xlink:title="Construct a successful result carrying a value.">
<polygon fill="white" stroke="#666666" points="689.5,-272.5 588.5,-272.5 588.5,-242.5 689.5,-242.5 689.5,-272.5"/>
<text text-anchor="start" x="596.5" y="-260.5" font-family="Helvetica,sans-Serif" font-size="10.00">truss::application</text>
<text text-anchor="middle" x="639" y="-249.5" font-family="Helvetica,sans-Serif" font-size="10.00">::Result::Success</text>
</a>
</g>
</g>
<!-- Node11&#45;&gt;Node13 -->
<g id="edge14_Node000011_Node000013" class="edge">
<title>Node11&#45;&gt;Node13</title>
<g id="a_edge14_Node000011_Node000013"><a xlink:title=" ">
<path fill="none" stroke="#63b8ff" d="M534.47,-286.99C549.09,-282.83 564.41,-278.47 578.65,-274.41"/>
<polygon fill="#63b8ff" stroke="#63b8ff" points="579.65,-277.76 588.31,-271.66 577.73,-271.03 579.65,-277.76"/>
</a>
</g>
</g>
<!-- Node14 -->
<g id="Node000014" class="node">
<title>Node14</title>
<g id="a_Node000014"><a xlink:href="classtruss_1_1core_1_1validation_1_1TrussValidator.html#a4d47b42f7f412a1796f1f1ec7d4417ed" target="_top" xlink:title="Perform comprehensive validation of a truss system.">
<polygon fill="white" stroke="#666666" points="707.5,-224.5 570.5,-224.5 570.5,-194.5 707.5,-194.5 707.5,-224.5"/>
<text text-anchor="start" x="578.5" y="-212.5" font-family="Helvetica,sans-Serif" font-size="10.00">truss::core::validation</text>
<text text-anchor="middle" x="639" y="-201.5" font-family="Helvetica,sans-Serif" font-size="10.00">::TrussValidator::validate</text>
</a>
</g>
</g>
<!-- Node11&#45;&gt;Node14 -->
<g id="edge15_Node000011_Node000014" class="edge">
<title>Node11&#45;&gt;Node14</title>
<g id="a_edge15_Node000011_Node000014"><a xlink:title=" ">
<path fill="none" stroke="#63b8ff" d="M491.24,-285.82C511.57,-269.92 541.37,-248.25 570,-233.5 573.47,-231.71 577.1,-230.01 580.81,-228.38"/>
<polygon fill="#63b8ff" stroke="#63b8ff" points="582.21,-231.59 590.11,-224.54 579.53,-225.12 582.21,-231.59"/>
</a>
</g>
</g>
<!-- Node15 -->
<g id="Node000015" class="node">
<title>Node15</title>
<g id="a_Node000015"><a xlink:href="classtruss_1_1core_1_1validation_1_1TrussValidator.html#a18ca9b563ad2f4ff6ca6e23f44322c31" target="_top" xlink:title="Validate boundary conditions Checks: adequate constraints, no over&#45;constraints, valid support types.">
<polygon fill="white" stroke="#666666" points="934.5,-412 751.5,-412 751.5,-371 934.5,-371 934.5,-412"/>
<text text-anchor="start" x="759.5" y="-400" font-family="Helvetica,sans-Serif" font-size="10.00">truss::core::validation</text>
<text text-anchor="start" x="759.5" y="-389" font-family="Helvetica,sans-Serif" font-size="10.00">::TrussValidator::validateBoundary</text>
<text text-anchor="middle" x="843" y="-378" font-family="Helvetica,sans-Serif" font-size="10.00">Conditions</text>
</a>
</g>
</g>
<!-- Node14&#45;&gt;Node15 -->
<g id="edge16_Node000014_Node000015" class="edge">
<title>Node14&#45;&gt;Node15</title>
<g id="a_edge16_Node000014_Node000015"><a xlink:title=" ">
<path fill="none" stroke="#63b8ff" d="M696.87,-224.52C700.96,-227.06 704.75,-230.03 708,-233.5 748.4,-276.63 702.69,-319.24 744,-361.5 745.09,-362.61 746.22,-363.69 747.38,-364.72"/>
<polygon fill="#63b8ff" stroke="#63b8ff" points="745.48,-367.67 755.55,-370.98 749.74,-362.12 745.48,-367.67"/>
</a>
</g>
</g>
<!-- Node16 -->
<g id="Node000016" class="node">
<title>Node16</title>
<g id="a_Node000016"><a xlink:href="classtruss_1_1core_1_1validation_1_1TrussValidator.html#a5b1cafd9e0f78bcbd046ead8a70ddcfc" target="_top" xlink:title="Validate member connectivity Checks: all members connect valid nodes, no self&#45;loops,...">
<polygon fill="white" stroke="#666666" points="942,-352.5 744,-352.5 744,-322.5 942,-322.5 942,-352.5"/>
<text text-anchor="start" x="752" y="-340.5" font-family="Helvetica,sans-Serif" font-size="10.00">truss::core::validation</text>
<text text-anchor="middle" x="843" y="-329.5" font-family="Helvetica,sans-Serif" font-size="10.00">::TrussValidator::validateConnectivity</text>
</a>
</g>
</g>
<!-- Node14&#45;&gt;Node16 -->
<g id="edge18_Node000014_Node000016" class="edge">
<title>Node14&#45;&gt;Node16</title>
<g id="a_edge18_Node000014_Node000016"><a xlink:title=" ">
<path fill="none" stroke="#63b8ff" d="M695.67,-224.69C700.12,-227.19 704.31,-230.11 708,-233.5 736.7,-259.89 714.03,-288.56 744,-313.5 745.39,-314.66 746.82,-315.76 748.3,-316.81"/>
<polygon fill="#63b8ff" stroke="#63b8ff" points="746.82,-320 757.17,-322.27 750.49,-314.04 746.82,-320"/>
</a>
</g>
</g>
<!-- Node17 -->
<g id="Node000017" class="node">
<title>Node17</title>
<g id="a_Node000017"><a xlink:href="classtruss_1_1core_1_1validation_1_1TrussValidator.html#a3c01394d83f298ff90554b0847f366c3" target="_top" xlink:title="Validate geometric properties Checks: non&#45;zero member lengths, no duplicate nodes,...">
<polygon fill="white" stroke="#666666" points="935.5,-304.5 750.5,-304.5 750.5,-274.5 935.5,-274.5 935.5,-304.5"/>
<text text-anchor="start" x="758.5" y="-292.5" font-family="Helvetica,sans-Serif" font-size="10.00">truss::core::validation</text>
<text text-anchor="middle" x="843" y="-281.5" font-family="Helvetica,sans-Serif" font-size="10.00">::TrussValidator::validateGeometry</text>
</a>
</g>
</g>
<!-- Node14&#45;&gt;Node17 -->
<g id="edge20_Node000014_Node000017" class="edge">
<title>Node14&#45;&gt;Node17</title>
<g id="a_edge20_Node000014_Node000017"><a xlink:title=" ">
<path fill="none" stroke="#63b8ff" d="M689.63,-224.57C695.98,-227.2 702.26,-230.17 708,-233.5 726.27,-244.08 725.27,-254.74 744,-264.5 748.51,-266.85 753.25,-268.99 758.11,-270.93"/>
<polygon fill="#63b8ff" stroke="#63b8ff" points="757,-274.25 767.59,-274.43 759.42,-267.68 757,-274.25"/>
</a>
</g>
</g>
<!-- Node18 -->
<g id="Node000018" class="node">
<title>Node18</title>
<g id="a_Node000018"><a xlink:href="classtruss_1_1core_1_1validation_1_1TrussValidator.html#a598b1c1ff7913ecf52474c245ac12ab2" target="_top" xlink:title="Validate kinematic stability Checks: no mechanisms, adequate constraints to prevent rigid body motion...">
<polygon fill="white" stroke="#666666" points="936,-256 750,-256 750,-215 936,-215 936,-256"/>
<text text-anchor="start" x="758" y="-244" font-family="Helvetica,sans-Serif" font-size="10.00">truss::core::validation</text>
<text text-anchor="start" x="758" y="-233" font-family="Helvetica,sans-Serif" font-size="10.00">::TrussValidator::validateKinematic</text>
<text text-anchor="middle" x="843" y="-222" font-family="Helvetica,sans-Serif" font-size="10.00">Stability</text>
</a>
</g>
</g>
<!-- Node14&#45;&gt;Node18 -->
<g id="edge22_Node000014_Node000018" class="edge">
<title>Node14&#45;&gt;Node18</title>
<g id="a_edge22_Node000014_Node000018"><a xlink:title=" ">
<path fill="none" stroke="#63b8ff" d="M707.54,-218.19C717.91,-219.53 728.8,-220.93 739.71,-222.33"/>
<polygon fill="#63b8ff" stroke="#63b8ff" points="739.36,-225.82 749.72,-223.62 740.25,-218.87 739.36,-225.82"/>
</a>
</g>
</g>
<!-- Node19 -->
<g id="Node000019" class="node">
<title>Node19</title>
<g id="a_Node000019"><a xlink:href="classtruss_1_1core_1_1validation_1_1TrussValidator.html#a7647bc08840457a67447f8722677731c" target="_top" xlink:title="Validate load definitions Checks: loads applied to existing nodes, non&#45;zero loads,...">
<polygon fill="white" stroke="#666666" points="925.5,-196.5 760.5,-196.5 760.5,-166.5 925.5,-166.5 925.5,-196.5"/>
<text text-anchor="start" x="768.5" y="-184.5" font-family="Helvetica,sans-Serif" font-size="10.00">truss::core::validation</text>
<text text-anchor="middle" x="843" y="-173.5" font-family="Helvetica,sans-Serif" font-size="10.00">::TrussValidator::validateLoads</text>
</a>
</g>
</g>
<!-- Node14&#45;&gt;Node19 -->
<g id="edge24_Node000014_Node000019" class="edge">
<title>Node14&#45;&gt;Node19</title>
<g id="a_edge24_Node000014_Node000019"><a xlink:title=" ">
<path fill="none" stroke="#63b8ff" d="M707.54,-200.14C721.34,-198.23 736.07,-196.18 750.53,-194.18"/>
<polygon fill="#63b8ff" stroke="#63b8ff" points="751.07,-197.64 760.49,-192.8 750.11,-190.7 751.07,-197.64"/>
</a>
</g>
</g>
<!-- Node20 -->
<g id="Node000020" class="node">
<title>Node20</title>
<g id="a_Node000020"><a xlink:href="classtruss_1_1core_1_1validation_1_1TrussValidator.html#ad904dd34542f341c109c559fbab256df" target="_top" xlink:title="Validate material properties Checks: positive Young&#39;s modulus, positive area, positive density.">
<polygon fill="white" stroke="#666666" points="934,-148.5 752,-148.5 752,-118.5 934,-118.5 934,-148.5"/>
<text text-anchor="start" x="760" y="-136.5" font-family="Helvetica,sans-Serif" font-size="10.00">truss::core::validation</text>
<text text-anchor="middle" x="843" y="-125.5" font-family="Helvetica,sans-Serif" font-size="10.00">::TrussValidator::validateMaterials</text>
</a>
</g>
</g>
<!-- Node14&#45;&gt;Node20 -->
<g id="edge26_Node000014_Node000020" class="edge">
<title>Node14&#45;&gt;Node20</title>
<g id="a_edge26_Node000014_Node000020"><a xlink:title=" ">
<path fill="none" stroke="#63b8ff" d="M666.2,-194.34C686.81,-182.93 716.52,-167.59 744,-157.5 749.93,-155.32 756.14,-153.28 762.43,-151.38"/>
<polygon fill="#63b8ff" stroke="#63b8ff" points="763.72,-154.65 772.35,-148.51 761.77,-147.93 763.72,-154.65"/>
</a>
</g>
</g>
<!-- Node21 -->
<g id="Node000021" class="node">
<title>Node21</title>
<g id="a_Node000021"><a xlink:href="classtruss_1_1core_1_1validation_1_1TrussValidator.html#a1483aca9c9708c8e70fbb37437c9f2b7" target="_top" xlink:title="Validate static determinacy Checks: 2n = m + r equation, proper constraint distribution.">
<polygon fill="white" stroke="#666666" points="925,-100 761,-100 761,-59 925,-59 925,-100"/>
<text text-anchor="start" x="769" y="-88" font-family="Helvetica,sans-Serif" font-size="10.00">truss::core::validation</text>
<text text-anchor="start" x="769" y="-77" font-family="Helvetica,sans-Serif" font-size="10.00">::TrussValidator::validateStatic</text>
<text text-anchor="middle" x="843" y="-66" font-family="Helvetica,sans-Serif" font-size="10.00">Determinacy</text>
</a>
</g>
</g>
<!-- Node14&#45;&gt;Node21 -->
<g id="edge28_Node000014_Node000021" class="edge">
<title>Node14&#45;&gt;Node21</title>
<g id="a_edge28_Node000014_Node000021"><a xlink:title=" ">
<path fill="none" stroke="#63b8ff" d="M651.78,-194.33C669.51,-172.5 705.13,-132.35 744,-109.5 747.18,-107.63 750.48,-105.87 753.88,-104.21"/>
<polygon fill="#63b8ff" stroke="#63b8ff" points="755.37,-107.37 763.03,-100.04 752.47,-101 755.37,-107.37"/>
</a>
</g>
</g>
<!-- Node22 -->
<g id="Node000022" class="node">
<title>Node22</title>
<g id="a_Node000022"><a xlink:href="classtruss_1_1core_1_1validation_1_1TrussValidator.html#a51ed2e1e7fc8d8565e6871432859ce24" target="_top" xlink:title="Validate structural completeness Checks: minimum node count, minimum member count,...">
<polygon fill="white" stroke="#666666" points="935,-41 751,-41 751,0 935,0 935,-41"/>
<text text-anchor="start" x="759" y="-29" font-family="Helvetica,sans-Serif" font-size="10.00">truss::core::validation</text>
<text text-anchor="start" x="759" y="-18" font-family="Helvetica,sans-Serif" font-size="10.00">::TrussValidator::validateStructural</text>
<text text-anchor="middle" x="843" y="-7" font-family="Helvetica,sans-Serif" font-size="10.00">Completeness</text>
</a>
</g>
</g>
<!-- Node14&#45;&gt;Node22 -->
<g id="edge30_Node000014_Node000022" class="edge">
<title>Node14&#45;&gt;Node22</title>
<g id="a_edge30_Node000014_Node000022"><a xlink:title=" ">
<path fill="none" stroke="#63b8ff" d="M645.69,-194.14C658.3,-162.24 691.69,-88.53 744,-49.5 745.42,-48.44 746.87,-47.42 748.36,-46.44"/>
<polygon fill="#63b8ff" stroke="#63b8ff" points="750.39,-49.31 757.22,-41.21 746.83,-43.28 750.39,-49.31"/>
</a>
</g>
</g>
<!-- Node15&#45;&gt;Node2 -->
<g id="edge17_Node000015_Node000002" class="edge">
<title>Node15&#45;&gt;Node2</title>
<g id="a_edge17_Node000015_Node000002"><a xlink:title=" ">
<path fill="none" stroke="#63b8ff" d="M924.55,-370.92C930.65,-368.15 936.54,-365.02 942,-361.5 983.78,-334.55 1019.16,-287.59 1038.12,-259.24"/>
<polygon fill="#63b8ff" stroke="#63b8ff" points="1041.14,-261.02 1043.69,-250.74 1035.28,-257.19 1041.14,-261.02"/>
</a>
</g>
</g>
<!-- Node16&#45;&gt;Node2 -->
<g id="edge19_Node000016_Node000002" class="edge">
<title>Node16&#45;&gt;Node2</title>
<g id="a_edge19_Node000016_Node000002"><a xlink:title=" ">
<path fill="none" stroke="#63b8ff" d="M918.31,-322.44C926.46,-319.87 934.5,-316.9 942,-313.5 973.99,-298.97 1006.4,-274.88 1027.87,-257.31"/>
<polygon fill="#63b8ff" stroke="#63b8ff" points="1030.36,-259.79 1035.81,-250.7 1025.89,-254.41 1030.36,-259.79"/>
</a>
</g>
</g>
<!-- Node17&#45;&gt;Node2 -->
<g id="edge21_Node000017_Node000002" class="edge">
<title>Node17&#45;&gt;Node2</title>
<g id="a_edge21_Node000017_Node000002"><a xlink:title=" ">
<path fill="none" stroke="#63b8ff" d="M903.09,-274.48C915.92,-271.21 929.42,-267.75 942,-264.5 956.18,-260.84 971.37,-256.89 985.83,-253.12"/>
<polygon fill="#63b8ff" stroke="#63b8ff" points="986.9,-256.45 995.69,-250.54 985.13,-249.68 986.9,-256.45"/>
</a>
</g>
</g>
<!-- Node18&#45;&gt;Node2 -->
<g id="edge23_Node000018_Node000002" class="edge">
<title>Node18&#45;&gt;Node2</title>
<g id="a_edge23_Node000018_Node000002"><a xlink:title=" ">
<path fill="none" stroke="#63b8ff" d="M936.28,-235.5C946.69,-235.5 957.27,-235.5 967.6,-235.5"/>
<polygon fill="#63b8ff" stroke="#63b8ff" points="967.82,-239 977.82,-235.5 967.82,-232 967.82,-239"/>
</a>
</g>
</g>
<!-- Node19&#45;&gt;Node2 -->
<g id="edge25_Node000019_Node000002" class="edge">
<title>Node19&#45;&gt;Node2</title>
<g id="a_edge25_Node000019_Node000002"><a xlink:title=" ">
<path fill="none" stroke="#63b8ff" d="M906.27,-196.51C918.14,-199.44 930.47,-202.53 942,-205.5 957.06,-209.38 973.24,-213.68 988.46,-217.78"/>
<polygon fill="#63b8ff" stroke="#63b8ff" points="987.74,-221.21 998.3,-220.44 989.56,-214.45 987.74,-221.21"/>
</a>
</g>
</g>
<!-- Node20&#45;&gt;Node2 -->
<g id="edge27_Node000020_Node000002" class="edge">
<title>Node20&#45;&gt;Node2</title>
<g id="a_edge27_Node000020_Node000002"><a xlink:title=" ">
<path fill="none" stroke="#63b8ff" d="M918.31,-148.56C926.46,-151.13 934.5,-154.1 942,-157.5 973.99,-172.03 1006.4,-196.12 1027.87,-213.69"/>
<polygon fill="#63b8ff" stroke="#63b8ff" points="1025.89,-216.59 1035.81,-220.3 1030.36,-211.21 1025.89,-216.59"/>
</a>
</g>
</g>
<!-- Node21&#45;&gt;Node2 -->
<g id="edge29_Node000021_Node000002" class="edge">
<title>Node21&#45;&gt;Node2</title>
<g id="a_edge29_Node000021_Node000002"><a xlink:title=" ">
<path fill="none" stroke="#63b8ff" d="M924.55,-100.08C930.65,-102.85 936.54,-105.98 942,-109.5 983.78,-136.45 1019.16,-183.41 1038.12,-211.76"/>
<polygon fill="#63b8ff" stroke="#63b8ff" points="1035.28,-213.81 1043.69,-220.26 1041.14,-209.98 1035.28,-213.81"/>
</a>
</g>
</g>
<!-- Node22&#45;&gt;Node2 -->
<g id="edge31_Node000022_Node000002" class="edge">
<title>Node22&#45;&gt;Node2</title>
<g id="a_edge31_Node000022_Node000002"><a xlink:title=" ">
<path fill="none" stroke="#63b8ff" d="M928.93,-41.02C933.53,-43.53 937.94,-46.34 942,-49.5 997.19,-92.36 1030.75,-171 1044.99,-210.89"/>
<polygon fill="#63b8ff" stroke="#63b8ff" points="1041.7,-212.08 1048.28,-220.38 1048.31,-209.79 1041.7,-212.08"/>
</a>
</g>
</g>
</g>
</svg>
