<?xml version="1.0" encoding="UTF-8" standalone="no"?>
<!DOCTYPE svg PUBLIC "-//W3C//DTD SVG 1.1//EN"
 "http://www.w3.org/Graphics/SVG/1.1/DTD/svg11.dtd">
<!-- Generated by graphviz version 2.43.0 (0)
 -->
<!-- Title: truss::application::TrussApplicationService::saveTruss Pages: 1 -->
<svg width="451pt" height="98pt"
 viewBox="0.00 0.00 451.00 97.50" xmlns="http://www.w3.org/2000/svg" xmlns:xlink="http://www.w3.org/1999/xlink">
<g id="graph0" class="graph" transform="scale(1 1) rotate(0) translate(4 93.5)">
<title>truss::application::TrussApplicationService::saveTruss</title>
<!-- Node1 -->
<g id="Node000001" class="node">
<title>Node1</title>
<g id="a_Node000001"><a xlink:title="Save truss to file (auto&#45;detects format from extension)">
<polygon fill="#999999" stroke="#666666" points="138,-62.5 0,-62.5 0,-21.5 138,-21.5 138,-62.5"/>
<text text-anchor="start" x="8" y="-50.5" font-family="Helvetica,sans-Serif" font-size="10.00">truss::application</text>
<text text-anchor="start" x="8" y="-39.5" font-family="Helvetica,sans-Serif" font-size="10.00">::TrussApplicationService</text>
<text text-anchor="middle" x="69" y="-28.5" font-family="Helvetica,sans-Serif" font-size="10.00">::saveTruss</text>
</a>
</g>
</g>
<!-- Node1&#45;&gt;Node1 -->
<g id="edge4_Node000001_Node000001" class="edge">
<title>Node1&#45;&gt;Node1</title>
<g id="a_edge4_Node000001_Node000001"><a xlink:title=" ">
<path fill="none" stroke="#63b8ff" d="M39.59,-62.6C36.39,-72.15 46.19,-80.5 69,-80.5 83.26,-80.5 92.43,-77.24 96.53,-72.46"/>
<polygon fill="#63b8ff" stroke="#63b8ff" points="99.97,-73.08 98.41,-62.6 93.1,-71.76 99.97,-73.08"/>
</a>
</g>
</g>
<!-- Node2 -->
<g id="Node000002" class="node">
<title>Node2</title>
<g id="a_Node000002"><a xlink:href="classtruss_1_1infrastructure_1_1io_1_1FileIOFactory.html#a6a20a62a4a27dcadeb44243c586d5e9e" target="_top" xlink:title="Detect file format from file extension.">
<polygon fill="white" stroke="#666666" points="287,-89.5 174,-89.5 174,-48.5 287,-48.5 287,-89.5"/>
<text text-anchor="start" x="182" y="-77.5" font-family="Helvetica,sans-Serif" font-size="10.00">truss::infrastructure</text>
<text text-anchor="start" x="182" y="-66.5" font-family="Helvetica,sans-Serif" font-size="10.00">::io::FileIOFactory::</text>
<text text-anchor="middle" x="230.5" y="-55.5" font-family="Helvetica,sans-Serif" font-size="10.00">detectFormat</text>
</a>
</g>
</g>
<!-- Node1&#45;&gt;Node2 -->
<g id="edge1_Node000001_Node000002" class="edge">
<title>Node1&#45;&gt;Node2</title>
<g id="a_edge1_Node000001_Node000002"><a xlink:title=" ">
<path fill="none" stroke="#63b8ff" d="M138.11,-53.53C146.53,-54.96 155.14,-56.41 163.53,-57.83"/>
<polygon fill="#63b8ff" stroke="#63b8ff" points="163.2,-61.33 173.64,-59.54 164.37,-54.42 163.2,-61.33"/>
</a>
</g>
</g>
<!-- Node4 -->
<g id="Node000004" class="node">
<title>Node4</title>
<g id="a_Node000004"><a xlink:href="structtruss_1_1application_1_1Result.html#a053316ac5f18e56102eb9a500cb77cf0" target="_top" xlink:title="Construct a failure result carrying an error message.">
<polygon fill="white" stroke="#666666" points="281,-30 180,-30 180,0 281,0 281,-30"/>
<text text-anchor="start" x="188" y="-18" font-family="Helvetica,sans-Serif" font-size="10.00">truss::application</text>
<text text-anchor="middle" x="230.5" y="-7" font-family="Helvetica,sans-Serif" font-size="10.00">::Result::Failure</text>
</a>
</g>
</g>
<!-- Node1&#45;&gt;Node4 -->
<g id="edge3_Node000001_Node000004" class="edge">
<title>Node1&#45;&gt;Node4</title>
<g id="a_edge3_Node000001_Node000004"><a xlink:title=" ">
<path fill="none" stroke="#63b8ff" d="M138.11,-30.47C148.65,-28.69 159.47,-26.86 169.8,-25.11"/>
<polygon fill="#63b8ff" stroke="#63b8ff" points="170.68,-28.51 179.95,-23.39 169.51,-21.61 170.68,-28.51"/>
</a>
</g>
</g>
<!-- Node3 -->
<g id="Node000003" class="node">
<title>Node3</title>
<g id="a_Node000003"><a xlink:href="namespacetruss_1_1infrastructure_1_1io.html#a34eac675136061d3f285a2ece9c4b71b" target="_top" xlink:title="Detect file format from extension.">
<polygon fill="white" stroke="#666666" points="443,-84 323,-84 323,-54 443,-54 443,-84"/>
<text text-anchor="start" x="331" y="-72" font-family="Helvetica,sans-Serif" font-size="10.00">truss::infrastructure</text>
<text text-anchor="middle" x="383" y="-61" font-family="Helvetica,sans-Serif" font-size="10.00">::io::detectFileFormat</text>
</a>
</g>
</g>
<!-- Node2&#45;&gt;Node3 -->
<g id="edge2_Node000002_Node000003" class="edge">
<title>Node2&#45;&gt;Node3</title>
<g id="a_edge2_Node000002_Node000003"><a xlink:title=" ">
<path fill="none" stroke="#63b8ff" d="M287.11,-69C295.48,-69 304.19,-69 312.8,-69"/>
<polygon fill="#63b8ff" stroke="#63b8ff" points="312.83,-72.5 322.83,-69 312.83,-65.5 312.83,-72.5"/>
</a>
</g>
</g>
</g>
</svg>
