<?xml version="1.0" encoding="UTF-8" standalone="no"?>
<!DOCTYPE svg PUBLIC "-//W3C//DTD SVG 1.1//EN"
 "http://www.w3.org/Graphics/SVG/1.1/DTD/svg11.dtd">
<!-- Generated by graphviz version 2.43.0 (0)
 -->
<!-- Title: /home/runner/work/2D&#45;Truss&#45;Analysis/2D&#45;Truss&#45;Analysis/include/truss/core/truss.hpp Pages: 1 -->
<svg width="200pt" height="115pt"
 viewBox="0.00 0.00 199.50 115.00" xmlns="http://www.w3.org/2000/svg" xmlns:xlink="http://www.w3.org/1999/xlink">
<g id="graph0" class="graph" transform="scale(1 1) rotate(0) translate(4 111)">
<title>/home/runner/work/2D&#45;Truss&#45;Analysis/2D&#45;Truss&#45;Analysis/include/truss/core/truss.hpp</title>
<!-- Node1 -->
<g id="Node000001" class="node">
<title>Node1</title>
<g id="a_Node000001"><a xlink:title="Main Truss structure class &#45; represents complete 2D truss structure.">
<polygon fill="#999999" stroke="#666666" points="164,-107 30,-107 30,-55 164,-55 164,-107"/>
<text text-anchor="start" x="38" y="-95" font-family="Helvetica,sans-Serif" font-size="10.00">/home/runner/work/2D</text>
<text text-anchor="start" x="38" y="-84" font-family="Helvetica,sans-Serif" font-size="10.00">&#45;Truss&#45;Analysis/2D&#45;Truss</text>
<text text-anchor="start" x="38" y="-73" font-family="Helvetica,sans-Serif" font-size="10.00">&#45;Analysis/include/truss</text>
<text text-anchor="middle" x="97" y="-62" font-family="Helvetica,sans-Serif" font-size="10.00">/core/truss.hpp</text>
</a>
</g>
</g>
<!-- Node2 -->
<g id="Node000002" class="node">
<title>Node2</title>
<g id="a_Node000002"><a xlink:title=" ">
<polygon fill="#e0e0e0" stroke="#999999" points="50,-19 0,-19 0,0 50,0 50,-19"/>
<text text-anchor="middle" x="25" y="-7" font-family="Helvetica,sans-Serif" font-size="10.00">cstdint</text>
</a>
</g>
</g>
<!-- Node1&#45;&gt;Node2 -->
<g id="edge1_Node000001_Node000002" class="edge">
<title>Node1&#45;&gt;Node2</title>
<g id="a_edge1_Node000001_Node000002"><a xlink:title=" ">
<path fill="none" stroke="#63b8ff" d="M71.01,-54.91C61.14,-45.38 50.18,-34.8 41.43,-26.36"/>
<polygon fill="#63b8ff" stroke="#63b8ff" points="43.74,-23.73 34.12,-19.3 38.88,-28.77 43.74,-23.73"/>
</a>
</g>
</g>
<!-- Node3 -->
<g id="Node000003" class="node">
<title>Node3</title>
<g id="a_Node000003"><a xlink:title=" ">
<polygon fill="#e0e0e0" stroke="#999999" points="126,-19 68,-19 68,0 126,0 126,-19"/>
<text text-anchor="middle" x="97" y="-7" font-family="Helvetica,sans-Serif" font-size="10.00">memory</text>
</a>
</g>
</g>
<!-- Node1&#45;&gt;Node3 -->
<g id="edge2_Node000001_Node000003" class="edge">
<title>Node1&#45;&gt;Node3</title>
<g id="a_edge2_Node000001_Node000003"><a xlink:title=" ">
<path fill="none" stroke="#63b8ff" d="M97,-54.91C97,-46.55 97,-37.38 97,-29.55"/>
<polygon fill="#63b8ff" stroke="#63b8ff" points="100.5,-29.3 97,-19.3 93.5,-29.3 100.5,-29.3"/>
</a>
</g>
</g>
<!-- Node4 -->
<g id="Node000004" class="node">
<title>Node4</title>
<g id="a_Node000004"><a xlink:title=" ">
<polygon fill="#e0e0e0" stroke="#999999" points="191.5,-19 144.5,-19 144.5,0 191.5,0 191.5,-19"/>
<text text-anchor="middle" x="168" y="-7" font-family="Helvetica,sans-Serif" font-size="10.00">vector</text>
</a>
</g>
</g>
<!-- Node1&#45;&gt;Node4 -->
<g id="edge3_Node000001_Node000004" class="edge">
<title>Node1&#45;&gt;Node4</title>
<g id="a_edge3_Node000001_Node000004"><a xlink:title=" ">
<path fill="none" stroke="#63b8ff" d="M122.63,-54.91C132.36,-45.38 143.17,-34.8 151.79,-26.36"/>
<polygon fill="#63b8ff" stroke="#63b8ff" points="154.31,-28.8 159.01,-19.3 149.41,-23.8 154.31,-28.8"/>
</a>
</g>
</g>
</g>
</svg>
