<?xml version="1.0" encoding="UTF-8" standalone="no"?>
<!DOCTYPE svg PUBLIC "-//W3C//DTD SVG 1.1//EN"
 "http://www.w3.org/Graphics/SVG/1.1/DTD/svg11.dtd">
<!-- Generated by graphviz version 2.43.0 (0)
 -->
<!-- Title: Graphical Class Hierarchy Pages: 1 -->
<svg width="272pt" height="86pt"
 viewBox="0.00 0.00 272.00 86.00" xmlns="http://www.w3.org/2000/svg" xmlns:xlink="http://www.w3.org/1999/xlink">
<g id="graph0" class="graph" transform="scale(1 1) rotate(0) translate(4 82)">
<title>Graphical Class Hierarchy</title>
<!-- Node0 -->
<g id="Node000000" class="node">
<title>Node0</title>
<g id="a_Node000000"><a xlink:href="classtruss_1_1core_1_1analysis_1_1ILinearSolver.html" target="_top" xlink:title="Abstract interface for linear system solvers.">
<polygon fill="white" stroke="#666666" points="114,-54 0,-54 0,-24 114,-24 114,-54"/>
<text text-anchor="start" x="8" y="-42" font-family="Helvetica,sans-Serif" font-size="10.00">truss::core::analysis</text>
<text text-anchor="middle" x="57" y="-31" font-family="Helvetica,sans-Serif" font-size="10.00">::ILinearSolver</text>
</a>
</g>
</g>
<!-- Node1 -->
<g id="Node000001" class="node">
<title>Node1</title>
<g id="a_Node000001"><a xlink:href="classtruss_1_1core_1_1analysis_1_1DirectSolver.html" target="_top" xlink:title="Direct solver using LDLT matrix factorization.">
<polygon fill="white" stroke="#666666" points="264,-78 150,-78 150,-48 264,-48 264,-78"/>
<text text-anchor="start" x="158" y="-66" font-family="Helvetica,sans-Serif" font-size="10.00">truss::core::analysis</text>
<text text-anchor="middle" x="207" y="-55" font-family="Helvetica,sans-Serif" font-size="10.00">::DirectSolver</text>
</a>
</g>
</g>
<!-- Node0&#45;&gt;Node1 -->
<g id="edge16_Node000000_Node000001" class="edge">
<title>Node0&#45;&gt;Node1</title>
<g id="a_edge16_Node000000_Node000001"><a xlink:title=" ">
<path fill="none" stroke="#63b8ff" d="M124.28,-49.75C132.8,-51.13 141.45,-52.53 149.78,-53.88"/>
<polygon fill="#63b8ff" stroke="#63b8ff" points="124.81,-46.29 114.37,-48.14 123.69,-53.2 124.81,-46.29"/>
</a>
</g>
</g>
<!-- Node2 -->
<g id="Node000002" class="node">
<title>Node2</title>
<g id="a_Node000002"><a xlink:href="classtruss_1_1core_1_1analysis_1_1IterativeSolver.html" target="_top" xlink:title="Iterative solver using Conjugate Gradient (CG) method.">
<polygon fill="white" stroke="#666666" points="264,-30 150,-30 150,0 264,0 264,-30"/>
<text text-anchor="start" x="158" y="-18" font-family="Helvetica,sans-Serif" font-size="10.00">truss::core::analysis</text>
<text text-anchor="middle" x="207" y="-7" font-family="Helvetica,sans-Serif" font-size="10.00">::IterativeSolver</text>
</a>
</g>
</g>
<!-- Node0&#45;&gt;Node2 -->
<g id="edge17_Node000000_Node000002" class="edge">
<title>Node0&#45;&gt;Node2</title>
<g id="a_edge17_Node000000_Node000002"><a xlink:title=" ">
<path fill="none" stroke="#63b8ff" d="M124.28,-28.25C132.8,-26.87 141.45,-25.47 149.78,-24.12"/>
<polygon fill="#63b8ff" stroke="#63b8ff" points="123.69,-24.8 114.37,-29.86 124.81,-31.71 123.69,-24.8"/>
</a>
</g>
</g>
</g>
</svg>
